<svg width="121" height="120" xmlns="http://www.w3.org/2000/svg" xmlns:xlink="http://www.w3.org/1999/xlink" xml:space="preserve" overflow="hidden"><g transform="translate(-123 -300)"><path d="M0 57.4997 120 57.4997 120 62.5003 0 62.5003Z" fill="#FFFFFF" transform="matrix(1.00833 0 0 1 123 300)"/><path d="M60 48.5311 44.2814 32.8125 47.8125 29.2814 60 41.4689 72.1875 29.2814 75.7186 32.8125Z" fill="#FFFFFF" transform="matrix(1.00833 0 0 1 123 300)"/><path d="M57.4997 0 62.5003 0 62.5003 45 57.4997 45Z" fill="#FFFFFF" transform="matrix(1.00833 0 0 1 123 300)"/><path d="M72.1875 90.7186 60 78.5311 47.8125 90.7186 44.2814 87.1875 60 71.4689 75.7186 87.1875Z" fill="#FFFFFF" transform="matrix(1.00833 0 0 1 123 300)"/><path d="M57.4997 75 62.5003 75 62.5003 120 57.4997 120Z" fill="#FFFFFF" transform="matrix(1.00833 0 0 1 123 300)"/></g></svg>