<svg width="24" height="25" xmlns="http://www.w3.org/2000/svg" xmlns:xlink="http://www.w3.org/1999/xlink" xml:space="preserve" overflow="hidden"><g transform="translate(-989 -556)"><path d="M23.5285 17.83C22.7235 17.025 21.653 16.5815 20.5144 16.5815 19.4983 16.5815 18.5364 16.9347 17.769 17.583 16.0961 16.1727 13.5848 16.255 12.0098 17.83 11.9435 17.8963 11.9063 17.9862 11.9063 18.08 11.9063 21.3127 14.5364 23.9429 17.7692 23.9429 21.002 23.9429 23.6321 21.3127 23.6321 18.08 23.632 17.9862 23.5948 17.8963 23.5285 17.83ZM17.4275 18.2238C17.4842 18.351 17.6105 18.4334 17.7503 18.4334L17.7881 18.4334C17.928 18.4334 18.0543 18.351 18.111 18.2237 18.7684 17.6195 19.616 17.2885 20.5145 17.2885 21.3235 17.2885 22.0908 17.5576 22.7156 18.0522 19.9158 20.6203 15.5972 20.6306 12.7857 18.0823 14.1417 16.9816 16.1255 17.0283 17.4275 18.2238ZM17.7691 23.2358C15.213 23.2358 13.0858 21.3662 12.6824 18.9226 14.153 20.1024 15.9435 20.6928 17.7343 20.6928 19.5578 20.6928 21.3809 20.0808 22.8664 18.8576 22.4904 21.333 20.3479 23.2358 17.7691 23.2358Z" transform="matrix(1 0 0 1.04167 989 556)"/><path d="M9.28683 10.495C9.17972 10.4313 9.04688 10.4287 8.93738 10.4882 8.87456 10.5223 7.38028 11.3437 5.72194 13.0597 4.19109 14.6437 2.23359 17.3197 1.60139 21.0735 1.47872 21.802 1.6823 22.5437 2.16005 23.1086 2.63911 23.6751 3.33919 24 4.0808 24L7.27805 24C8.48095 24 9.45961 23.0214 9.45961 21.8184L9.45961 10.7988C9.45966 10.6741 9.39398 10.5587 9.28683 10.495ZM8.75269 21.8184C8.75269 22.6315 8.09119 23.293 7.27809 23.293L4.08084 23.293C3.54764 23.293 3.0443 23.0594 2.69986 22.6521 2.35673 22.2464 2.21048 21.7139 2.29861 21.191 2.89894 17.6264 4.75847 15.0787 6.21272 13.5692 7.22367 12.5199 8.18522 11.8115 8.75269 11.434L8.75269 21.8184Z" transform="matrix(1 0 0 1.04167 989 556)"/><path d="M5.65603 20.979C4.75238 20.979 3.84056 21.2476 3.84056 21.848 3.84056 22.0432 3.99881 22.2015 4.19405 22.2015 4.36725 22.2015 4.51139 22.0769 4.54163 21.9124 4.6463 21.8272 5.04895 21.6859 5.65603 21.6859 6.26311 21.6859 6.66572 21.8272 6.77044 21.9124 6.80072 22.0768 6.94481 22.2015 7.11802 22.2015 7.31325 22.2015 7.4715 22.0432 7.4715 21.848 7.4715 21.2476 6.55964 20.979 5.65603 20.979Z" transform="matrix(1 0 0 1.04167 989 556)"/><path d="M12.8292 5.52366C12.7424 5.39953 11.1209 3.11681 8.81409 2.08814L9.42661 0.7725C9.50902 0.595547 9.43233 0.385266 9.25533 0.302906 9.07842 0.2205 8.86814 0.297188 8.78573 0.474187L8.15189 1.83581C7.82827 1.73381 7.49381 1.66008 7.15059 1.62206L7.15059 0.353484C7.15059 0.15825 6.99234 0 6.79711 0 6.60187 0 6.44363 0.15825 6.44363 0.353484L6.44363 1.5967C6.08766 1.61105 5.74013 1.66542 5.40319 1.75172L4.80844 0.474141C4.72603 0.297141 4.5158 0.2205 4.33884 0.302859 4.16184 0.385266 4.0852 0.5955 4.16756 0.772453L4.72575 1.97147C2.2717 2.93156 0.522141 5.39456 0.431812 5.52366 0.346641 5.64534 0.346641 5.80734 0.431812 5.92903 0.544125 6.08958 3.22214 9.86011 6.63056 9.86011 10.0389 9.86011 12.717 6.08948 12.8293 5.92898 12.9144 5.8073 12.9144 5.64534 12.8292 5.52366ZM4.72791 2.73937C5.32444 2.47106 5.96564 2.2995 6.63052 2.2995 7.29567 2.2995 7.93758 2.47191 8.53505 2.74134 9.02048 3.24014 9.28791 3.8962 9.28791 4.59366 9.28791 5.30348 9.01148 5.9708 8.50959 6.47273 8.0077 6.97463 7.34034 7.25109 6.63047 7.25109 5.92064 7.25109 5.25328 6.97467 4.75139 6.47273 3.72342 5.44472 3.71597 3.77737 4.72791 2.73937ZM6.63061 9.15323C4.01498 9.15323 1.75711 6.49041 1.16316 5.7262 1.49105 5.30334 2.32702 4.30055 3.45169 3.48834 3.33005 3.83916 3.26616 4.21148 3.26616 4.5937 3.26616 5.49234 3.61612 6.33722 4.25156 6.97266 4.887 7.60814 5.73187 7.95806 6.63052 7.95806 7.52916 7.95806 8.37408 7.60809 9.00947 6.97266 9.64495 6.33722 9.99487 5.49239 9.99487 4.5937 9.99487 4.21233 9.93122 3.84089 9.81014 3.49078 10.9335 4.30261 11.7695 5.30395 12.0979 5.72639 11.5035 6.49111 9.24581 9.15323 6.63061 9.15323Z" transform="matrix(1 0 0 1.04167 989 556)"/><path d="M6.63047 2.8305C5.73558 2.8305 5.00756 3.55852 5.00756 4.45341 5.00756 5.3483 5.73558 6.07631 6.63047 6.07631 7.52536 6.07631 8.25338 5.3483 8.25338 4.45341 8.25338 3.55852 7.52536 2.8305 6.63047 2.8305ZM6.63047 5.36934C6.12544 5.36934 5.71453 4.95844 5.71453 4.45341 5.71453 3.94838 6.12544 3.53747 6.63047 3.53747 7.1355 3.53747 7.54641 3.94838 7.54641 4.45341 7.54641 4.95844 7.13555 5.36934 6.63047 5.36934Z" transform="matrix(1 0 0 1.04167 989 556)"/><path d="M19.0219 7.96411C18.127 7.96411 17.399 8.69213 17.399 9.58702 17.399 10.4819 18.127 11.2099 19.0219 11.2099 19.9168 11.2099 20.6448 10.4819 20.6448 9.58702 20.6448 8.69213 19.9168 7.96411 19.0219 7.96411ZM19.0219 10.503C18.5169 10.503 18.106 10.092 18.106 9.58702 18.106 9.08194 18.5169 8.67108 19.0219 8.67108 19.527 8.67108 19.9379 9.08198 19.9379 9.58702 19.9379 10.0921 19.527 10.503 19.0219 10.503Z" transform="matrix(1 0 0 1.04167 989 556)"/><path d="M23.1218 10.1071C23.3171 10.1071 23.4753 9.94884 23.4753 9.75361 23.4753 9.55838 23.3171 9.40012 23.1218 9.40012L21.8786 9.40012C21.8643 9.04416 21.8099 8.69662 21.7236 8.35973L23.0012 7.76498C23.1782 7.68258 23.2548 7.47234 23.1725 7.29539 23.0901 7.11844 22.8798 7.0418 22.7029 7.12411L21.5039 7.68225C20.5438 5.2282 18.0808 3.47864 17.9517 3.38831 17.83 3.30309 17.668 3.30309 17.5463 3.38831 17.3858 3.50063 13.6152 6.17864 13.6152 9.58706 13.6152 12.9955 17.3858 15.6735 17.5463 15.7858 17.6072 15.8284 17.6781 15.8497 17.749 15.8497 17.8199 15.8497 17.8908 15.8284 17.9516 15.7858 18.0758 15.699 20.3585 14.0775 21.3871 11.7707L22.7029 12.3832C22.7512 12.4057 22.8019 12.4163 22.8518 12.4163 22.985 12.4163 23.1126 12.3407 23.1725 12.2119 23.2549 12.0349 23.1782 11.8247 23.0012 11.7423L21.6395 11.1085C21.7415 10.7849 21.8153 10.4504 21.8533 10.1072L23.1218 10.1072ZM17.7488 15.0545C16.9841 14.4612 14.3221 12.2072 14.3221 9.58702 14.3221 6.97139 16.985 4.71352 17.7492 4.11956 18.172 4.44759 19.1748 5.28356 19.987 6.40828 19.6362 6.28659 19.2639 6.2227 18.8816 6.2227 17.983 6.2227 17.1381 6.57267 16.5027 7.20811 15.8672 7.84355 15.5173 8.68838 15.5173 9.58706 15.5173 10.4858 15.8672 11.3306 16.5027 11.966 17.1381 12.6015 17.983 12.9514 18.8816 12.9514 19.263 12.9514 19.6344 12.8878 19.9845 12.7667 19.1726 13.8901 18.1711 14.7262 17.7488 15.0545ZM20.7339 11.4915C20.2351 11.977 19.579 12.2445 18.8815 12.2445 18.1717 12.2445 17.5044 11.968 17.0025 11.4661 16.5006 10.9643 16.2241 10.2969 16.2241 9.58706 16.2241 8.87728 16.5005 8.20992 17.0025 7.70798 17.5044 7.20609 18.1717 6.92967 18.8815 6.92967 19.5799 6.92967 20.2368 7.19775 20.7359 7.68441 21.0042 8.28089 21.1758 8.92209 21.1758 9.58697 21.1758 10.2522 21.0034 10.8941 20.7339 11.4915Z" transform="matrix(1 0 0 1.04167 989 556)"/><path d="M8.20528 13.6656C8.09902 13.5018 7.88006 13.4553 7.71633 13.5615 5.22895 15.1755 4.0035 18.5672 3.95255 18.7108 3.88725 18.8948 3.98348 19.0969 4.16747 19.1621 4.20656 19.176 4.24641 19.1826 4.28569 19.1826 4.43114 19.1826 4.56745 19.0921 4.61883 18.9472 4.6305 18.9143 5.81283 15.6394 8.10117 14.1546 8.26495 14.0483 8.31155 13.8294 8.20528 13.6656Z" transform="matrix(1 0 0 1.04167 989 556)"/><path d="M22.4082 1.97433C21.142 0.708094 19.456 0.0107812 17.6607 0.0107812 15.8653 0.0107812 14.1794 0.708094 12.9131 1.97428 12.7055 2.18189 12.5912 2.45789 12.5912 2.75152 12.5912 3.04514 12.7055 3.32114 12.9131 3.52875 13.3418 3.95733 14.0391 3.95723 14.4675 3.5287 16.2282 1.76808 19.0931 1.76808 20.8538 3.5287 21.0614 3.73631 21.3374 3.85064 21.631 3.85064 21.9246 3.85064 22.2006 3.73631 22.4082 3.5287 22.8368 3.10017 22.8368 2.40286 22.4082 1.97433ZM21.9083 3.02887C21.8342 3.10294 21.7358 3.14377 21.631 3.14377 21.5263 3.14377 21.4277 3.10294 21.3537 3.02887 20.3355 2.0107 18.9982 1.50169 17.6607 1.50169 16.3233 1.50169 14.9858 2.01075 13.9677 3.02887 13.8148 3.18178 13.566 3.18178 13.413 3.02887 13.3389 2.95477 13.2982 2.85628 13.2982 2.75156 13.2982 2.64684 13.3389 2.54827 13.413 2.47425 14.5456 1.34156 16.0542 0.717797 17.6607 0.717797 19.2672 0.717797 20.7757 1.34156 21.9083 2.47425 21.9825 2.54836 22.0232 2.64684 22.0232 2.75156 22.0233 2.85633 21.9825 2.95481 21.9083 3.02887Z" transform="matrix(1 0 0 1.04167 989 556)"/><path d="M12.2454 11.6123C12.1789 11.5205 12.0724 11.4661 11.9591 11.4661 11.8457 11.4661 11.7392 11.5205 11.6728 11.6123 11.4258 11.9535 10.62 13.1143 10.62 13.7256 10.62 14.464 11.2207 15.0647 11.9591 15.0647 12.6975 15.0647 13.2982 14.464 13.2982 13.7256 13.2982 13.1143 12.4923 11.9535 12.2454 11.6123ZM11.959 14.3577C11.6105 14.3577 11.3269 14.0741 11.3269 13.7256 11.3269 13.518 11.6196 12.9676 11.9588 12.4454 12.2989 12.9704 12.5912 13.5239 12.5912 13.7256 12.5912 14.0742 12.3076 14.3577 11.959 14.3577Z" transform="matrix(1 0 0 1.04167 989 556)"/></g></svg>