<svg width="24" height="25" xmlns="http://www.w3.org/2000/svg" xmlns:xlink="http://www.w3.org/1999/xlink" xml:space="preserve" overflow="hidden"><g transform="translate(-989 -237)"><path d="M21.3243 10.2057C21.4177 10.2247 21.5143 10.2347 21.6132 10.2347 22.4132 10.2347 23.0641 9.58383 23.0641 8.78377 23.0641 8.25773 22.7827 7.79625 22.3625 7.54177 22.4086 6.96652 22.3055 6.44714 22.0473 5.99995 21.3351 4.7663 19.5626 4.275 17.0567 4.61658 16.6442 4.67278 16.2189 4.75087 15.7838 4.84875 15.651 4.42298 15.506 4.01559 15.3484 3.63023 14.3911 1.28925 13.0795 0 11.655 0 10.2305 0 8.91881 1.28925 7.96163 3.63023 7.80408 4.01559 7.659 4.42298 7.52625 4.84875 7.09116 4.75083 6.66577 4.67278 6.25327 4.61653 6.07856 4.59272 5.90808 4.57364 5.74073 4.55808 5.57423 3.94031 5.00944 3.48427 4.33983 3.48427 3.59381 3.48427 2.97778 4.05028 2.89791 4.77534 2.14828 5.01947 1.59173 5.43 1.26267 6 0.550453 7.23366 1.01109 9.0142 2.55984 11.0137 2.8148 11.3428 3.09506 11.6722 3.39741 12 3.09506 12.3279 2.81475 12.6573 2.55984 12.9864 1.01109 14.9858 0.550453 16.7664 1.26267 18 1.82719 18.9779 3.05761 19.4893 4.79175 19.4893 5.24536 19.4893 5.73366 19.4543 6.25327 19.3834 6.66577 19.3272 7.09116 19.2491 7.52625 19.1512 7.659 19.577 7.80408 19.9844 7.96163 20.3697 8.91881 22.7108 10.2305 24 11.655 24 12.3932 24 13.1008 23.6525 13.7448 22.9931 13.8975 23.0478 14.0618 23.0779 14.2331 23.0779 15.0331 23.0779 15.684 22.427 15.684 21.6269 15.684 21.224 15.5188 20.859 15.2528 20.5959 15.285 20.5216 15.317 20.4466 15.3484 20.3698 15.506 19.9845 15.651 19.5772 15.7838 19.1515 16.2394 19.254 16.6844 19.3346 17.1152 19.3913 17.3077 19.4166 17.4844 19.2812 17.5097 19.0886 17.5351 18.8961 17.3996 18.7194 17.2071 18.6941 16.8099 18.6418 16.3998 18.5681 15.9799 18.4749 16.2778 17.3669 16.4959 16.1512 16.6263 14.8702 17.6704 14.1167 18.6142 13.32 19.4248 12.508 19.7021 12.8104 19.9594 13.1139 20.1942 13.4169 21.5367 15.1502 21.9902 16.6925 21.4383 17.6484 20.9334 18.5228 19.7252 18.7469 18.8006 18.7808 18.6066 18.7879 18.4551 18.951 18.4622 19.145 18.4691 19.3347 18.6251 19.4837 18.8133 19.4837 18.8177 19.4837 18.8221 19.4836 18.8265 19.4835 20.4067 19.4255 21.5205 18.9125 22.0473 18 22.7595 16.7663 22.2989 14.9858 20.7501 12.9863 20.4952 12.6572 20.2148 12.3278 19.9125 12 20.2148 11.6722 20.4952 11.3428 20.7501 11.0137 20.9621 10.74 21.1533 10.4704 21.3243 10.2057ZM22.3609 8.78377C22.3609 9.19603 22.0254 9.53147 21.6132 9.53147 21.2009 9.53147 20.8655 9.19603 20.8655 8.78377 20.8655 8.3715 21.2009 8.03606 21.6132 8.03606 22.0254 8.03606 22.3609 8.3715 22.3609 8.78377ZM8.61248 3.89644C9.44231 1.86708 10.5512 0.703219 11.655 0.703219 12.7588 0.703219 13.8677 1.86708 14.6975 3.89644 14.8425 4.25128 14.9767 4.62586 15.0999 5.01717 13.9914 5.31319 12.8295 5.7322 11.655 6.25969 10.4805 5.7322 9.31856 5.31319 8.21006 5.01717 8.3333 4.62586 8.46741 4.25123 8.61248 3.89644ZM16.0663 12C16.0663 12.846 16.0291 13.6776 15.957 14.4838 15.2949 14.9493 14.5934 15.3973 13.8606 15.8203 13.1279 16.2434 12.3891 16.6269 11.6548 16.9676 10.9209 16.627 10.1823 16.2435 9.44925 15.8203 8.71655 15.3973 8.01497 14.9493 7.35286 14.4838 7.28072 13.6776 7.24355 12.846 7.24355 12 7.24355 11.154 7.28072 10.3224 7.35286 9.51623 8.01497 9.05067 8.7165 8.60269 9.44925 8.17969 10.182 7.75664 10.9207 7.37311 11.6549 7.03247 12.3892 7.37311 13.1279 7.75664 13.8606 8.17969 14.5933 8.60273 15.2948 9.05072 15.957 9.51623 16.0291 10.3224 16.0663 11.154 16.0663 12ZM10.8082 17.3421C9.85373 17.7436 8.91417 18.0686 8.013 18.3081 7.76986 17.4079 7.58147 16.4317 7.452 15.4043 7.98038 15.7587 8.53003 16.1016 9.09773 16.4293 9.66562 16.7572 10.2373 17.0618 10.8082 17.3421ZM6.60525 13.9377C5.7803 13.3119 5.02908 12.6607 4.371 12 5.02908 11.3393 5.7803 10.6881 6.60525 10.0623 6.56255 10.6971 6.54042 11.3445 6.54042 12 6.54042 12.6555 6.5625 13.3029 6.60525 13.9377ZM7.45195 8.5957C7.58142 7.56834 7.76981 6.59212 8.01295 5.69189 8.91417 5.93147 9.85378 6.25641 10.8083 6.65794 10.2371 6.93834 9.66544 7.24289 9.09769 7.57069 8.52994 7.89848 7.98038 8.24128 7.45195 8.5957ZM14.2123 7.57069C13.6446 7.24294 13.0728 6.93834 12.5017 6.65794 13.4562 6.25641 14.3958 5.93147 15.297 5.69189 15.5401 6.59212 15.7285 7.56834 15.858 8.5957 15.3296 8.24128 14.78 7.89844 14.2123 7.57069ZM4.33983 4.18753C4.75209 4.18753 5.08753 4.52297 5.08753 4.93528 5.08753 5.34755 4.75209 5.68298 4.33983 5.68298 3.92756 5.68298 3.59213 5.34755 3.59213 4.93528 3.59213 4.52302 3.92756 4.18753 4.33983 4.18753ZM1.87167 6.35156C2.09302 5.96822 2.47748 5.67825 2.99817 5.487 3.21577 6.01416 3.73505 6.3862 4.33983 6.3862 5.02627 6.3862 5.6025 5.90686 5.75241 5.26542 5.8852 5.27873 6.02039 5.29448 6.1583 5.31328 6.53813 5.36503 6.92963 5.43619 7.33013 5.52511 7.03223 6.63314 6.81413 7.84884 6.68367 9.1298 5.63958 9.88327 4.6958 10.68 3.88519 11.492 3.60792 11.1896 3.35058 10.8861 3.11583 10.583 1.77323 8.84977 1.31981 7.30748 1.87167 6.35156ZM6.1583 18.6867C3.98602 18.9827 2.42358 18.6043 1.87167 17.6484 1.31981 16.6926 1.77323 15.1502 3.11583 13.417 3.35058 13.1139 3.60792 12.8104 3.88519 12.508 4.6958 13.32 5.63958 14.1167 6.68367 14.8702 6.81413 16.1512 7.03223 17.3669 7.33013 18.4749 6.92963 18.5638 6.53813 18.6349 6.1583 18.6867ZM14.233 22.3747C13.8207 22.3747 13.4853 22.0392 13.4853 21.6269 13.4853 21.2146 13.8207 20.8792 14.233 20.8792 14.6453 20.8792 14.9807 21.2146 14.9807 21.6269 14.9807 22.0392 14.6453 22.3747 14.233 22.3747ZM14.6975 20.1036C14.6793 20.1481 14.6607 20.1915 14.6422 20.235 14.5124 20.1968 14.3751 20.1759 14.233 20.1759 13.433 20.1759 12.7821 20.8268 12.7821 21.6269 12.7821 21.9964 12.9211 22.3339 13.1494 22.5904 12.6685 23.0513 12.1613 23.2968 11.655 23.2968 10.5512 23.2968 9.44231 22.1329 8.61248 20.1036 8.46741 19.7487 8.33325 19.3741 8.21002 18.9828 9.31852 18.6869 10.4803 18.2678 11.6549 17.7404 12.8297 18.2681 13.9914 18.6871 15.0998 18.983 14.9767 19.3743 14.8425 19.7488 14.6975 20.1036ZM15.297 18.3083C14.3956 18.0688 13.4561 17.7441 12.5013 17.3422 13.0725 17.0618 13.6444 16.7572 14.2122 16.4293 14.7799 16.1016 15.3296 15.7587 15.858 15.4043 15.7285 16.4317 15.5401 17.408 15.297 18.3083ZM16.7048 10.0623C17.5297 10.6881 18.2809 11.3393 18.939 12 18.2809 12.6607 17.5297 13.3119 16.7048 13.9377 16.7475 13.3029 16.7696 12.6555 16.7696 12 16.7696 11.3445 16.7475 10.6971 16.7048 10.0623ZM20.1942 10.583C19.9594 10.8861 19.7021 11.1896 19.4248 11.492 18.6142 10.68 17.6704 9.88327 16.6263 9.1298 16.4959 7.84884 16.2778 6.63314 15.9799 5.52511 16.3804 5.43619 16.7719 5.36503 17.1517 5.31328 17.6363 5.24728 18.0904 5.2148 18.5099 5.2148 19.9707 5.2148 21.0096 5.60887 21.4384 6.35152 21.6002 6.63183 21.675 6.96286 21.6667 7.33411 21.6489 7.33345 21.6311 7.33275 21.6132 7.33275 20.8132 7.33275 20.1623 7.98366 20.1623 8.78367 20.1623 9.23091 20.3658 9.63136 20.6849 9.8977 20.5373 10.1222 20.374 10.3508 20.1942 10.583Z" transform="matrix(1 0 0 1.04167 989 237)"/><path d="M14.9269 10.9521C14.9269 9.90928 14.0785 9.06089 13.0357 9.06089 12.4919 9.06089 12.0014 9.29189 11.656 9.66056 11.3309 9.31242 10.8755 9.08667 10.363 9.06291 10.1693 9.05452 10.0045 9.20391 9.99548 9.39787 9.98653 9.59184 10.1365 9.75638 10.3305 9.76538 10.7221 9.78352 11.0606 9.98948 11.2629 10.2937 11.1864 10.4988 11.1445 10.7205 11.1445 10.952 11.1445 11.0437 11.1515 11.1336 11.1643 11.2217 10.6733 11.3537 10.2609 11.679 10.0134 12.1106 9.48347 11.9914 9.0863 11.5174 9.0863 10.952 9.0863 10.7342 9.14564 10.5214 9.25786 10.3366 9.35869 10.1706 9.30581 9.95438 9.13983 9.85359 8.97384 9.75272 8.75766 9.80559 8.65683 9.97162 8.47772 10.2665 8.38308 10.6055 8.38308 10.952 8.38308 11.825 8.97792 12.5609 9.78342 12.7775 9.77072 12.8659 9.76378 12.9561 9.76378 13.0479 9.76378 14.0907 10.6122 14.9391 11.655 14.9391 12.6977 14.9391 13.5461 14.0907 13.5461 13.0479 13.5461 12.9562 13.5392 12.8662 13.5265 12.7779 14.3321 12.5613 14.9269 11.8251 14.9269 10.9521ZM11.655 14.2359C11 14.2359 10.467 13.703 10.467 13.0479 10.467 12.3929 11 11.86 11.655 11.86 12.31 11.86 12.843 12.3929 12.843 13.0479 12.843 13.703 12.31 14.2359 11.655 14.2359ZM13.2966 12.1108C13.0038 11.6 12.4799 11.2381 11.8682 11.1691 11.8551 11.0987 11.8477 11.0263 11.8477 10.9521 11.8477 10.297 12.3807 9.76411 13.0357 9.76411 13.6907 9.76411 14.2237 10.297 14.2237 10.9521 14.2237 11.5175 13.8265 11.9915 13.2966 12.1108Z" transform="matrix(1 0 0 1.04167 989 237)"/></g></svg>