
<svg width="86" height="87" xmlns="http://www.w3.org/2000/svg" xmlns:xlink="http://www.w3.org/1999/xlink" xml:space="preserve" overflow="hidden"><g transform="translate(-70 -327)"><path d="M43.3382 56.3498C35.975 56.3498 30.0059 50.3807 30.0059 43.0174 30.0059 35.6542 35.975 29.6851 43.3382 29.6851 50.7014 29.6851 56.6705 35.6542 56.6705 43.0174 56.6621 50.3772 50.6979 56.3414 43.3382 56.3498ZM43.3382 32.0094C37.2587 32.0094 32.3302 36.9379 32.3302 43.0174 32.3302 49.0969 37.2587 54.0254 43.3382 54.0254 49.4177 54.0254 54.3462 49.0969 54.3462 43.0174 54.3391 36.9408 49.4148 32.0165 43.3382 32.0094Z" fill="#000000" transform="matrix(1 0 0 1.01163 70 327)"/><path d="M55.4491 43.0872C54.8072 43.089 54.2854 42.5703 54.2834 41.9285 54.2818 41.3486 54.7077 40.8563 55.2817 40.7745L70.1632 38.5838C70.8005 38.5073 71.3791 38.9619 71.4555 39.5992 71.5292 40.2126 71.11 40.7764 70.5014 40.8825L55.6257 43.0697C55.5674 43.0798 55.5084 43.0857 55.4491 43.0872Z" fill="#000000" transform="matrix(1 0 0 1.01163 70 327)"/><path d="M69.4857 65.8714C69.2362 65.8701 68.9937 65.7886 68.7942 65.6389L51.1758 52.6006C50.66 52.2184 50.5518 51.4905 50.9341 50.9748 51.3163 50.459 52.0442 50.3508 52.5599 50.733L70.1783 63.7748C70.6918 64.16 70.7959 64.8884 70.4108 65.4018 70.1912 65.6945 69.8469 65.8667 69.481 65.8667Z" fill="#000000" transform="matrix(1 0 0 1.01163 70 327)"/><path d="M31.5376 74.0297C30.8957 74.0297 30.3754 73.5094 30.3754 72.8676 30.3754 72.711 30.407 72.5561 30.4684 72.412L38.2793 54.0556C38.5199 53.4606 39.1973 53.1732 39.7923 53.4139 40.3873 53.6545 40.6747 54.3319 40.4342 54.9269 40.429 54.9399 40.4234 54.9528 40.4177 54.9656L32.6079 73.3278C32.4237 73.7549 32.0027 74.031 31.5376 74.0297Z" fill="#000000" transform="matrix(1 0 0 1.01163 70 327)"/><path d="M16.4818 50.4808C15.8399 50.4801 15.3202 49.9593 15.3209 49.3174 15.3215 48.7849 15.684 48.3208 16.2005 48.1914L31.1459 44.4469C31.7689 44.2906 32.4005 44.6689 32.5568 45.2918 32.7131 45.9147 32.3348 46.5463 31.7119 46.7027L16.7654 50.446C16.6726 50.469 16.5773 50.4807 16.4818 50.4808Z" fill="#000000" transform="matrix(1 0 0 1.01163 70 327)"/><path d="M34.02 36.3373C33.7759 36.3373 33.538 36.2605 33.3401 36.1177L22.8202 28.5218C22.2938 28.1547 22.1645 27.4303 22.5317 26.9038 22.8987 26.3772 23.6232 26.248 24.1496 26.6151 24.1602 26.6226 24.1708 26.6301 24.1811 26.6379L34.701 34.2338C35.221 34.6102 35.3372 35.3368 34.9609 35.8567 34.7424 36.1585 34.3924 36.3372 34.02 36.3373Z" fill="#000000" transform="matrix(1 0 0 1.01163 70 327)"/><path d="M45.1186 32.1373C44.4768 32.1375 43.9563 31.6173 43.9561 30.9755 43.9561 30.8766 43.9688 30.778 43.9936 30.6822L48.1263 14.8211C48.3003 14.2032 48.9422 13.8434 49.5601 14.0175 50.1588 14.1862 50.5186 14.7965 50.3762 15.4021L46.2436 31.268C46.1103 31.78 45.6478 32.1374 45.1186 32.1373Z" fill="#000000" transform="matrix(1 0 0 1.01163 70 327)"/><path d="M17.1779 32.0094C12.2492 32.0094 8.25368 28.0139 8.25368 23.0852 8.25368 18.1565 12.2492 14.1609 17.1779 14.1609 22.1066 14.1609 26.1022 18.1565 26.1022 23.0852 26.1022 23.0855 26.1022 23.086 26.1022 23.0864 26.0964 28.0125 22.1041 32.0043 17.1779 32.0094ZM17.1779 16.4864C13.5329 16.4864 10.578 19.4413 10.578 23.0864 10.578 26.7314 13.5329 29.6863 17.1779 29.6863 20.8229 29.6863 23.7778 26.7314 23.7778 23.0864 23.774 19.4429 20.8214 16.4903 17.1779 16.4864Z" fill="#000000" transform="matrix(1 0 0 1.01163 70 327)"/><path d="M50.8307 16.4864C46.9199 16.4864 43.7496 13.3162 43.7496 9.40538 43.7496 5.49462 46.9199 2.32432 50.8307 2.32432 54.7414 2.32432 57.9117 5.49462 57.9117 9.40538 57.9072 13.3143 54.7396 16.4819 50.8307 16.4864ZM50.8307 4.64865C48.2036 4.64865 46.0739 6.77831 46.0739 9.40538 46.0739 12.0324 48.2036 14.1621 50.8307 14.1621 53.4577 14.1621 55.5874 12.0324 55.5874 9.40538 55.5828 6.78017 53.4559 4.65312 50.8307 4.64865Z" fill="#000000" transform="matrix(1 0 0 1.01163 70 327)"/><path d="M74.8107 44.6782C71.6547 44.6782 69.0964 42.1198 69.0964 38.9638 69.0964 35.8078 71.6547 33.2495 74.8107 33.2495 77.9667 33.2495 80.5251 35.8078 80.5251 38.9638 80.5218 42.1184 77.9653 44.6749 74.8107 44.6782ZM74.8107 35.5749C72.9385 35.5749 71.4207 37.0927 71.4207 38.965 71.4207 40.8372 72.9385 42.355 74.8107 42.355 76.683 42.355 78.2007 40.8372 78.2007 38.965 78.2007 38.9646 78.2007 38.9642 78.2007 38.9638 78.1982 37.0928 76.6817 35.5769 74.8107 35.5749Z" fill="#000000" transform="matrix(1 0 0 1.01163 70 327)"/><path d="M74.6317 76.0217C70.7782 76.0114 67.5501 73.1023 67.1404 69.2707 66.7092 65.1333 69.7135 61.4297 73.8509 60.9983 77.9882 60.567 81.6919 63.5713 82.1231 67.7087 82.5545 71.8461 79.5501 75.5497 75.4128 75.9811 75.1533 76.0082 74.8926 76.0217 74.6317 76.0217ZM74.641 63.2704C74.4578 63.2703 74.2747 63.2801 74.0925 63.2995 71.2291 63.6032 69.153 66.1688 69.4531 69.0324 69.7536 71.896 72.3185 73.9739 75.182 73.6735 78.0456 73.3732 80.1235 70.8082 79.8231 67.9446 79.5449 65.2915 77.3087 63.2766 74.641 63.2751Z" fill="#000000" transform="matrix(1 0 0 1.01163 70 327)"/><path d="M30.3069 83.6757C26.9571 83.6737 24.2431 80.9567 24.245 77.6069 24.247 74.257 26.964 71.5431 30.3138 71.545 33.6623 71.547 36.3757 74.2619 36.3757 77.6104 36.3718 80.9599 33.6564 83.6737 30.3069 83.6757ZM30.3069 73.8694C28.2408 73.8713 26.5674 75.5478 26.5694 77.6138 26.5713 79.6799 28.2477 81.3533 30.3138 81.3514 32.3785 81.3494 34.0513 79.675 34.0513 77.6104 34.0488 75.5439 32.3733 73.8699 30.3069 73.8694Z" fill="#000000" transform="matrix(1 0 0 1.01163 70 327)"/><path d="M10.9057 58.3301C6.99497 58.3301 3.82468 55.1598 3.82468 51.249 3.82468 47.3382 6.99497 44.168 10.9057 44.168 14.8165 44.168 17.9868 47.3382 17.9868 51.249 17.9868 51.2498 17.9868 51.2505 17.9868 51.2514 17.981 55.1594 14.8137 58.3256 10.9057 58.3301ZM10.9057 46.4935C8.27866 46.4935 6.149 48.6231 6.149 51.2502 6.149 53.8773 8.27866 56.0069 10.9057 56.0069 13.5323 56.0069 15.6618 53.878 15.6625 51.2514 15.6586 48.6257 13.5314 46.498 10.9057 46.4935Z" fill="#000000" transform="matrix(1 0 0 1.01163 70 327)"/></g></svg>