<svg width="24" height="25" xmlns="http://www.w3.org/2000/svg" xmlns:xlink="http://www.w3.org/1999/xlink" xml:space="preserve" overflow="hidden"><g transform="translate(-763 -459)"><path d="M9.37664 9.43945 9.6608 9.43945C10.1777 9.43945 10.5983 9.01889 10.5983 8.50195L10.5983 7.63186C10.5983 7.43766 10.4409 7.2803 10.2467 7.2803 10.0526 7.2803 9.89517 7.43766 9.89517 7.63186L9.89517 8.50195C9.89517 8.63119 9.79003 8.73633 9.6608 8.73633L9.37664 8.73633C9.18248 8.73633 9.02508 8.89369 9.02508 9.08789 9.02508 9.28209 9.18248 9.43945 9.37664 9.43945Z" transform="matrix(1 0 0 1.04167 763 459)"/><path d="M11.2234 10.3531C11.3607 10.2158 11.3607 9.99323 11.2234 9.85594 11.0861 9.71869 10.8635 9.71869 10.7262 9.85594 10.0604 10.5218 8.97713 10.5218 8.31127 9.85594 8.17397 9.71869 7.95136 9.71869 7.81411 9.85594 7.67681 9.99328 7.67681 10.2158 7.81411 10.3531 8.75409 11.2931 10.2834 11.2931 11.2234 10.3531Z" transform="matrix(1 0 0 1.04167 763 459)"/><path d="M22.8368 22.8498 22.1785 15.6083C22.1621 15.4273 22.0103 15.2886 21.8284 15.2886L19.9959 15.2886 19.9959 14.9122C19.9959 13.9154 19.185 13.1046 18.1883 13.1046 17.3508 13.1046 16.6446 13.677 16.4403 14.4512 15.8775 14.0532 15.1985 13.8326 14.4802 13.8326L4.55728 13.8326C2.68336 13.8326 1.15884 15.3571 1.15884 17.231L1.15884 18.6264C1.15884 18.8206 1.31625 18.978 1.51041 18.978 1.70456 18.978 1.86197 18.8206 1.86197 18.6264L1.86197 17.231C1.86197 15.7448 3.07106 14.5357 4.55728 14.5357L14.4802 14.5357C15.192 14.5357 15.8553 14.809 16.3508 15.2886L14.5481 15.2886C14.3663 15.2886 14.2145 15.4273 14.198 15.6083L13.5397 22.8498C13.5258 23.0024 13.5458 23.1549 13.596 23.2969L4.77408 23.2969 4.77408 17.8242C4.77408 17.63 4.61667 17.4727 4.42252 17.4727 4.22836 17.4727 4.07095 17.63 4.07095 17.8242L4.07095 21.1128 1.86197 21.1128 1.86197 20.3138C1.86197 20.1196 1.70456 19.9622 1.51041 19.9622 1.31625 19.9622 1.15884 20.1196 1.15884 20.3138L1.15884 23.6484C1.15884 23.8426 1.31625 24 1.51041 24L21.7865 24C22.0821 24 22.366 23.8748 22.5653 23.6565 22.7646 23.4382 22.8636 23.1442 22.8368 22.8498ZM1.86197 21.8159 4.07095 21.8159 4.07095 23.2969 1.86197 23.2969ZM22.0461 23.1824C21.9787 23.2562 21.8865 23.2969 21.7865 23.2969L14.59 23.2969C14.49 23.2969 14.3978 23.2562 14.3304 23.1824 14.263 23.1086 14.2308 23.0131 14.2399 22.9135L14.8692 15.9917 16.3807 15.9917 16.3807 17.0962C16.3807 17.2904 16.5381 17.4478 16.7322 17.4478 16.9264 17.4478 17.0838 17.2904 17.0838 17.0962L17.0838 15.9917C17.0844 15.9917 17.085 15.9917 17.0857 15.9917L17.5059 15.9917C17.7 15.9917 17.8575 15.8343 17.8575 15.6401 17.8575 15.4459 17.7 15.2886 17.5059 15.2886L17.2693 15.2886C17.2107 15.2043 17.1488 15.1232 17.0838 15.0454L17.0838 14.9121C17.0838 14.3031 17.5793 13.8076 18.1882 13.8076 18.7972 13.8076 19.2927 14.3031 19.2927 14.9121L19.2927 15.2886 19.1465 15.2886C18.9523 15.2886 18.7949 15.4459 18.7949 15.6401 18.7949 15.8343 18.9523 15.9917 19.1465 15.9917L19.2927 15.9917 19.2927 17.0962C19.2927 17.2904 19.4501 17.4477 19.6443 17.4477 19.8384 17.4477 19.9958 17.2904 19.9958 17.0962L19.9958 15.9917 21.5073 15.9917 22.1366 22.9135C22.1457 23.013 22.1135 23.1085 22.0461 23.1824Z" transform="matrix(1 0 0 1.04167 763 459)"/><path d="M3.85167 8.30072C4.00238 9.05442 4.62858 9.61781 5.37844 9.7027 5.77509 11.6374 7.49213 13.0796 9.51867 13.0796 11.5452 13.0796 13.2623 11.6375 13.6589 9.7027 14.4088 9.61786 15.035 9.05442 15.1857 8.30072L15.3762 7.34817C15.4662 6.89798 15.3145 6.44789 14.9703 6.14405 14.6827 5.89017 14.3103 5.78236 13.9416 5.83847L14.0078 4.77853C14.0861 3.52612 13.656 2.33273 12.7969 1.4182 11.9377 0.503672 10.7735 4.99598e-16 9.51872 4.99598e-16 8.61112 4.99598e-16 7.73677 0.268734 6.99028 0.777141 6.82978 0.886453 6.7883 1.10512 6.89761 1.26562 7.00692 1.42613 7.22559 1.46761 7.38605 1.35834 8.01539 0.929672 8.75283 0.703125 9.51872 0.703125 10.5774 0.703125 11.5597 1.12805 12.2845 1.89961 13.0094 2.67122 13.3722 3.67805 13.3062 4.73466L13.2184 6.13917 11.0752 5.5268C10.1774 5.2703 9.35386 4.78575 8.69363 4.12547L7.58316 3.01505C7.48256 2.91455 7.33139 2.88445 7.20005 2.93887 7.06866 2.99325 6.98302 3.1215 6.98302 3.26367L6.98302 4.27589C6.98302 4.95605 6.7583 5.63025 6.3502 6.17433L5.86186 6.82547C5.74463 4.94939 5.84714 6.59011 5.73117 4.7347 5.67966 3.91092 5.89022 3.11203 6.33994 2.42438 6.4462 2.26186 6.40064 2.04398 6.23812 1.93772 6.0757 1.83131 5.85773 1.87697 5.75147 2.03948 5.21808 2.85506 4.96837 3.80222 5.02941 4.77858L5.09564 5.83856C4.72683 5.78241 4.3545 5.89022 4.06692 6.14414 3.72277 6.44789 3.57108 6.89808 3.66108 7.34822ZM13.9477 6.55777C14.1426 6.4928 14.351 6.53522 14.5051 6.67116 14.6592 6.80719 14.7271 7.0087 14.6868 7.21027L14.4963 8.16281C14.4172 8.5582 14.1201 8.86631 13.7459 8.9715 13.7609 8.73225 13.8813 6.80564 13.8957 6.57506ZM6.91275 6.5962C7.4115 5.93119 7.68619 5.10713 7.68619 4.27589L7.68619 4.11244 8.19652 4.62272C8.94098 5.36728 9.86963 5.9137 10.882 6.20297L13.1735 6.85772 13.035 9.07312C12.9193 10.9255 11.3747 12.3765 9.51872 12.3765 7.66275 12.3765 6.11817 10.9255 6.00239 9.07312L5.92955 7.90725ZM4.53234 6.6712C4.68642 6.53512 4.89478 6.49261 5.08973 6.55777L5.14177 6.57511C5.2395 8.13909 5.19492 7.42552 5.29153 8.97155 4.91738 8.86631 4.62023 8.5582 4.54116 8.16281L4.35066 7.21027C4.31034 7.00875 4.37827 6.80723 4.53234 6.6712Z" transform="matrix(1 0 0 1.04167 763 459)"/></g></svg>