<svg width="25" height="25" xmlns="http://www.w3.org/2000/svg" xmlns:xlink="http://www.w3.org/1999/xlink" xml:space="preserve" overflow="hidden"><defs><clipPath id="clip0"><rect x="857" y="237" width="25" height="25"/></clipPath></defs><g clip-path="url(#clip0)" transform="translate(-857 -237)"><path d="M875.128 247.431 871.569 247.431 871.569 243.872C871.569 243.71 871.438 243.579 871.276 243.579L867.724 243.579C867.562 243.579 867.431 243.71 867.431 243.872L867.431 247.431 863.872 247.431C863.71 247.431 863.579 247.562 863.579 247.724L863.579 251.276C863.579 251.438 863.71 251.569 863.872 251.569L867.431 251.569 867.431 255.128C867.431 255.29 867.562 255.421 867.724 255.421L871.276 255.421C871.438 255.421 871.569 255.29 871.569 255.128L871.569 251.569 875.128 251.569C875.29 251.569 875.421 251.438 875.421 251.276L875.421 247.724C875.421 247.562 875.29 247.431 875.128 247.431ZM874.835 250.983 871.276 250.983C871.114 250.983 870.983 251.114 870.983 251.276L870.983 254.835 868.017 254.835 868.017 251.276C868.017 251.114 867.886 250.983 867.724 250.983L864.165 250.983 864.165 248.017 867.724 248.017C867.886 248.017 868.017 247.886 868.017 247.724L868.017 244.165 870.983 244.165 870.983 247.724C870.983 247.886 871.114 248.017 871.276 248.017L874.835 248.017ZM875.64 258.894C875.639 259.563 876.181 260.105 876.85 260.106 877.519 260.106 878.062 259.564 878.062 258.895 878.062 258.226 877.52 257.684 876.851 257.683 876.754 257.683 876.656 257.695 876.562 257.718L875.218 255.391C875.165 255.3 875.069 255.244 874.964 255.244L872.8 255.244C872.639 255.244 872.507 255.375 872.507 255.537 872.507 255.699 872.639 255.83 872.8 255.83L874.795 255.83 876.043 257.992C875.786 258.222 875.639 258.549 875.64 258.894ZM877.475 258.894C877.475 259.239 877.195 259.518 876.85 259.518 876.505 259.518 876.225 259.239 876.225 258.894 876.225 258.549 876.505 258.269 876.85 258.269 877.195 258.27 877.474 258.549 877.475 258.894ZM879.232 254.471C879.075 254.471 878.919 254.501 878.774 254.561L876.264 252.115C876.209 252.061 876.136 252.032 876.059 252.032L872.8 252.032C872.639 252.032 872.507 252.163 872.507 252.325 872.507 252.486 872.639 252.618 872.8 252.618L875.94 252.618 878.296 254.914C877.873 255.431 877.949 256.193 878.466 256.617 878.983 257.04 879.745 256.965 880.168 256.448 880.592 255.931 880.516 255.168 879.999 254.745 879.783 254.567 879.512 254.471 879.232 254.471ZM879.232 256.306C878.887 256.306 878.607 256.026 878.607 255.681 878.607 255.336 878.887 255.057 879.232 255.057 879.577 255.057 879.857 255.336 879.857 255.681 879.857 255.681 879.857 255.681 879.857 255.681 879.856 256.026 879.577 256.306 879.232 256.306ZM880.789 248.29C880.234 248.29 879.75 248.668 879.615 249.207L876.33 249.207C876.168 249.207 876.037 249.338 876.037 249.5 876.037 249.662 876.168 249.793 876.33 249.793L879.615 249.793C879.777 250.442 880.434 250.836 881.082 250.675 881.731 250.513 882.126 249.856 881.964 249.207 881.83 248.668 881.345 248.289 880.789 248.289ZM880.789 250.125C880.444 250.125 880.165 249.845 880.165 249.5 880.165 249.155 880.444 248.875 880.789 248.875 881.134 248.875 881.414 249.155 881.414 249.5 881.414 249.845 881.134 250.124 880.789 250.125ZM872.8 243.17C872.639 243.17 872.507 243.301 872.507 243.463 872.507 243.625 872.639 243.756 872.8 243.756L874.964 243.756C875.069 243.756 875.165 243.7 875.218 243.609L876.562 241.282C877.212 241.443 877.87 241.046 878.03 240.395 878.191 239.745 877.794 239.087 877.144 238.926 876.493 238.766 875.836 239.163 875.675 239.813 875.567 240.249 875.709 240.708 876.043 241.008L874.795 243.17ZM876.85 239.481C877.195 239.481 877.475 239.761 877.475 240.106 877.475 240.451 877.195 240.731 876.85 240.731 876.505 240.731 876.226 240.451 876.225 240.106 876.225 240.106 876.225 240.106 876.225 240.106 876.226 239.761 876.505 239.482 876.85 239.481ZM876.264 246.885 878.774 244.439C879.394 244.693 880.102 244.397 880.356 243.777 880.61 243.158 880.314 242.449 879.694 242.195 879.075 241.941 878.366 242.237 878.112 242.857 877.943 243.269 878.014 243.741 878.297 244.086L875.94 246.383 872.8 246.383C872.639 246.383 872.507 246.514 872.507 246.675 872.507 246.837 872.639 246.968 872.8 246.968L876.059 246.968C876.136 246.968 876.209 246.939 876.264 246.885ZM879.232 242.694C879.577 242.694 879.857 242.974 879.857 243.319 879.857 243.664 879.577 243.943 879.232 243.943 878.887 243.943 878.607 243.664 878.607 243.319 878.608 242.974 878.887 242.695 879.232 242.694ZM866.2 255.83C866.362 255.83 866.493 255.699 866.493 255.537 866.493 255.375 866.362 255.244 866.2 255.244L864.036 255.244C863.931 255.244 863.835 255.3 863.782 255.391L862.438 257.718C861.788 257.557 861.13 257.954 860.969 258.605 860.809 259.255 861.206 259.913 861.856 260.074 862.507 260.235 863.164 259.838 863.325 259.187 863.433 258.751 863.291 258.292 862.957 257.992L864.205 255.83ZM862.15 259.518C861.805 259.518 861.525 259.239 861.525 258.894 861.525 258.549 861.805 258.269 862.15 258.269 862.495 258.269 862.775 258.549 862.775 258.894 862.774 259.239 862.495 259.518 862.15 259.518ZM866.2 252.032 862.941 252.032C862.864 252.031 862.791 252.061 862.736 252.115L860.226 254.561C859.606 254.307 858.898 254.603 858.644 255.223 858.39 255.842 858.686 256.551 859.306 256.805 859.925 257.059 860.634 256.763 860.888 256.143 861.057 255.731 860.986 255.258 860.703 254.914L863.06 252.617 866.2 252.617C866.361 252.617 866.493 252.486 866.493 252.324 866.493 252.163 866.361 252.031 866.2 252.031ZM859.768 256.306C859.423 256.306 859.143 256.026 859.143 255.681 859.143 255.336 859.423 255.056 859.768 255.056 860.113 255.056 860.393 255.336 860.393 255.681 860.393 255.681 860.393 255.681 860.393 255.681 860.392 256.026 860.113 256.306 859.768 256.306ZM858.21 250.711C858.766 250.71 859.25 250.332 859.385 249.793L862.67 249.793C862.832 249.793 862.963 249.662 862.963 249.5 862.963 249.338 862.832 249.207 862.67 249.207L859.385 249.207C859.223 248.558 858.566 248.164 857.918 248.325 857.269 248.487 856.874 249.144 857.036 249.793 857.17 250.332 857.655 250.711 858.211 250.711ZM858.21 248.875C858.555 248.875 858.835 249.155 858.835 249.5 858.835 249.845 858.556 250.125 858.211 250.125 857.866 250.125 857.586 249.845 857.586 249.5 857.586 249.5 857.586 249.5 857.586 249.5 857.586 249.155 857.866 248.876 858.211 248.875ZM863.36 240.106C863.361 239.437 862.819 238.895 862.15 238.894 861.481 238.894 860.938 239.436 860.938 240.105 860.938 240.774 861.48 241.316 862.149 241.317 862.246 241.317 862.344 241.305 862.438 241.282L863.782 243.609C863.835 243.7 863.931 243.756 864.036 243.756L866.2 243.756C866.362 243.756 866.493 243.625 866.493 243.463 866.493 243.301 866.362 243.17 866.2 243.17L864.205 243.17 862.957 241.008C863.214 240.779 863.361 240.451 863.36 240.106ZM861.525 240.106C861.525 239.761 861.805 239.481 862.15 239.481 862.495 239.481 862.775 239.761 862.775 240.106 862.775 240.451 862.495 240.731 862.15 240.731 862.15 240.731 862.15 240.731 862.15 240.731 861.805 240.73 861.526 240.451 861.525 240.106ZM859.768 242.108C859.099 242.108 858.557 242.65 858.557 243.318 858.556 243.987 859.098 244.529 859.767 244.529 859.924 244.529 860.08 244.499 860.226 244.439L862.736 246.885C862.791 246.939 862.864 246.968 862.941 246.968L866.2 246.968C866.362 246.968 866.493 246.837 866.493 246.675 866.493 246.514 866.362 246.382 866.2 246.382L863.06 246.382 860.703 244.086C861.128 243.57 861.053 242.808 860.537 242.383 860.32 242.205 860.048 242.108 859.768 242.108ZM859.144 243.319C859.143 242.974 859.423 242.694 859.768 242.694 860.113 242.694 860.393 242.973 860.393 243.319 860.393 243.664 860.113 243.943 859.768 243.943 859.768 243.943 859.768 243.943 859.768 243.943 859.423 243.943 859.144 243.663 859.144 243.319Z"/></g></svg>