<svg width="29" height="28" xmlns="http://www.w3.org/2000/svg" xmlns:xlink="http://www.w3.org/1999/xlink" xml:space="preserve" overflow="hidden"><defs><clipPath id="clip0"><rect x="1082" y="458" width="29" height="28"/></clipPath></defs><g clip-path="url(#clip0)" transform="translate(-1082 -458)"><path d="M1.04996 16.3188 3.67496 18.2875C3.86824 18.4325 4.14247 18.3934 4.28748 18.2001 4.34429 18.1243 4.37502 18.0322 4.375 17.9375L4.375 17.5 14 17.5C15.9304 17.5026 17.4974 15.9398 17.5 14.0094 17.5014 13.0003 17.0665 12.0398 16.3073 11.375L24.0625 11.375C24.3042 11.375 24.5 11.1791 24.5 10.9375L25.9582 12.0312 24.5 13.125C24.5 12.8834 24.3042 12.6875 24.0625 12.6875L21.605 12.6875C21.5383 12.5583 21.4115 12.471 21.267 12.4546L19.9386 12.3069C19.9332 12.2878 19.9263 12.2691 19.9206 12.25L18.999 12.25C19.0641 12.4324 19.1191 12.6182 19.1638 12.8066 19.2055 12.9877 19.3572 13.1227 19.5419 13.1433L20.7812 13.2809 20.7812 14.7191 19.5419 14.8567C19.3572 14.8773 19.2055 15.0123 19.1638 15.1934 19.0325 15.7649 18.8066 16.3105 18.4953 16.8074 18.3967 16.965 18.4084 17.1677 18.5244 17.3129L19.3035 18.2867 18.2867 19.3034 17.313 18.5245C17.1678 18.4084 16.9651 18.3967 16.8075 18.4953 16.3105 18.8065 15.765 19.0325 15.1934 19.1638 15.0123 19.2055 14.8773 19.3572 14.8567 19.5419L14.7191 20.7812 13.2809 20.7812 13.1433 19.5419C13.1227 19.3572 12.9877 19.2055 12.8066 19.1638 12.235 19.0325 11.6895 18.8065 11.1925 18.4953 11.0349 18.3965 10.8321 18.4082 10.687 18.5245L9.71333 19.3034 8.78482 18.375 7.67808 18.375C7.68974 18.4708 7.73299 18.56 7.80097 18.6285L9.37153 20.199C9.52914 20.3567 9.78014 20.3706 9.9542 20.2313L10.9979 19.3963C11.4117 19.6271 11.8511 19.8091 12.3069 19.9386L12.4546 21.267C12.4792 21.4886 12.6664 21.6562 12.8894 21.6562L15.1106 21.6562C15.3336 21.6562 15.5208 21.4886 15.5454 21.267L15.6931 19.9386C16.1489 19.8091 16.5882 19.6271 17.0021 19.3963L18.0458 20.2313C18.2199 20.3706 18.4708 20.3567 18.6285 20.199L20.199 18.6285C20.3567 18.4708 20.3706 18.2199 20.2314 18.0458L19.3963 17.002C19.6271 16.5882 19.8091 16.1489 19.9386 15.6931L21.267 15.5454C21.4886 15.5208 21.6562 15.3336 21.6562 15.1106L21.6562 13.5625 23.625 13.5625 23.625 14C23.625 14.2417 23.821 14.4375 24.0625 14.4375 24.1572 14.4375 24.2493 14.4068 24.325 14.35L26.95 12.3813C27.1434 12.2362 27.1825 11.9619 27.0375 11.7686 27.0126 11.7355 26.9832 11.7061 26.95 11.6812L24.325 9.71248C24.1318 9.56747 23.8575 9.60662 23.7125 9.79989 23.6556 9.87564 23.625 9.9678 23.625 10.0625L23.625 10.5 14 10.5C12.0696 10.4974 10.5026 12.0602 10.5 13.9906 10.4986 14.9997 10.9335 15.9602 11.6927 16.625L3.9375 16.625C3.69589 16.625 3.50002 16.8209 3.5 17.0625L2.0417 15.9688 3.5 14.875C3.50002 15.1166 3.69589 15.3125 3.9375 15.3125L6.39496 15.3125C6.46172 15.4417 6.58851 15.529 6.73297 15.5454L8.0614 15.6931C8.06682 15.7122 8.07373 15.7309 8.07936 15.75L9.00104 15.75C8.93591 15.5676 8.88088 15.3818 8.83619 15.1934 8.79447 15.0123 8.64283 14.8773 8.45808 14.8567L7.21875 14.7191 7.21875 13.2809 8.45808 13.1433C8.64283 13.1227 8.79447 12.9877 8.83619 12.8066 8.96746 12.2351 9.19343 11.6895 9.50473 11.1926 9.60334 11.035 9.59164 10.8323 9.47557 10.6871L8.69649 9.71333 9.71333 8.69658 10.687 9.47546C10.8321 9.59179 11.0349 9.60354 11.1925 9.50473 11.6895 9.19347 12.235 8.9675 12.8066 8.83619 12.9877 8.79445 13.1227 8.64283 13.1433 8.45808L13.2809 7.21875 14.7191 7.21875 14.8567 8.45808C14.8773 8.64283 15.0123 8.79447 15.1934 8.83619 15.765 8.9675 16.3105 9.19347 16.8075 9.50471 16.9651 9.6033 17.1678 9.59157 17.313 9.47546L18.2867 8.69658 19.2152 9.625 20.3219 9.625C20.3103 9.52921 20.267 9.44003 20.199 9.37153L18.6285 7.80097C18.4709 7.64308 18.2198 7.62917 18.0458 7.76873L17.0021 8.60368C16.5882 8.37285 16.149 8.19088 15.6931 8.0614L15.5454 6.73297C15.5208 6.5114 15.3336 6.34377 15.1106 6.34375L12.8894 6.34375C12.6664 6.34377 12.4792 6.5114 12.4546 6.73297L12.3069 8.0614C11.8511 8.19088 11.4117 8.37285 10.9979 8.60368L9.9542 7.76873C9.78016 7.62932 9.52912 7.64321 9.37153 7.80097L7.80097 9.37153C7.64334 9.52917 7.62941 9.78009 7.76862 9.9542L8.60368 10.998C8.37285 11.4118 8.19088 11.8511 8.0614 12.3069L6.73297 12.4546C6.5114 12.4792 6.34377 12.6664 6.34375 12.8894L6.34375 14.4375 4.375 14.4375 4.375 14C4.37502 13.7584 4.17917 13.5625 3.93754 13.5624 3.84285 13.5624 3.75071 13.5931 3.67496 13.65L1.04996 15.6187C0.856645 15.7638 0.817526 16.0381 0.962583 16.2314 0.987429 16.2645 1.01685 16.2939 1.04996 16.3188ZM11.375 14C11.375 12.5503 12.5503 11.375 14 11.375 15.4497 11.375 16.625 12.5503 16.625 14 16.625 15.4497 15.4497 16.625 14 16.625 12.5509 16.6233 11.3767 15.4491 11.375 14Z" transform="matrix(1.03571 0 0 1 1082 458)"/><path d="M7.875 2.99801 7.875 4.26392C7.87502 4.42953 7.96854 4.58098 8.11661 4.65518L10.5 5.84835 10.5 7C10.5 7.24163 10.6959 7.4375 10.9375 7.4375 11.1791 7.4375 11.375 7.24163 11.375 7L11.375 5.57812C11.375 5.41251 11.2815 5.26107 11.1334 5.18687L8.75 3.99367 8.75 2.99801C9.56042 2.75638 10.0216 1.90353 9.77992 1.09309 9.53829 0.28266 8.68542-0.178451 7.875 0.0631732 7.06458 0.304798 6.60345 1.15766 6.84508 1.96809 6.99267 2.46315 7.37995 2.85042 7.875 2.99801ZM8.3125 0.875C8.67495 0.875 8.96875 1.16881 8.96875 1.53125 8.96875 1.89369 8.67495 2.1875 8.3125 2.1875 7.95005 2.1875 7.65625 1.89369 7.65625 1.53125 7.65664 1.16898 7.95023 0.875396 8.3125 0.875Z" transform="matrix(1.03571 0 0 1 1082 458)"/><path d="M17.0625 7.4375C17.3041 7.43748 17.5 7.24161 17.5 7L17.5 5.84835 19.8834 4.65518C20.0315 4.58098 20.125 4.42953 20.125 4.26392L20.125 2.99801C20.9354 2.75638 21.3965 1.90352 21.1549 1.09309 20.9133 0.282658 20.0604-0.178453 19.25 0.0631711 18.4396 0.304795 17.9785 1.15766 18.2201 1.96809 18.3677 2.46315 18.7549 2.85042 19.25 2.99801L19.25 3.99367 16.8666 5.18687C16.7185 5.26107 16.625 5.41251 16.625 5.57812L16.625 7C16.625 7.24161 16.8209 7.43748 17.0625 7.4375ZM19.0312 1.53125C19.0312 1.16881 19.3251 0.875 19.6875 0.875 20.0499 0.875 20.3438 1.16881 20.3438 1.53125 20.3438 1.89369 20.0499 2.1875 19.6875 2.1875 19.3252 2.1871 19.0316 1.89352 19.0312 1.53125Z" transform="matrix(1.03571 0 0 1 1082 458)"/><path d="M13.5625 2.99801 13.5625 5.03125C13.5625 5.27288 13.7584 5.46875 14 5.46875 14.2416 5.46875 14.4375 5.27288 14.4375 5.03125L14.4375 2.99801C15.2479 2.75638 15.709 1.90353 15.4674 1.09309 15.2258 0.28266 14.3729-0.178451 13.5625 0.0631732 12.7521 0.304798 12.2909 1.15766 12.5326 1.96809 12.6802 2.46315 13.0674 2.85042 13.5625 2.99801ZM14 0.875C14.3624 0.875 14.6562 1.16881 14.6562 1.53125 14.6562 1.89369 14.3624 2.1875 14 2.1875 13.6376 2.1875 13.3438 1.89369 13.3438 1.53125 13.3441 1.16898 13.6377 0.875396 14 0.875Z" transform="matrix(1.03571 0 0 1 1082 458)"/><path d="M11.1334 22.8132C11.2815 22.7388 11.375 22.5875 11.375 22.4219L11.375 21C11.375 20.7584 11.1791 20.5625 10.9375 20.5625 10.6959 20.5625 10.5 20.7584 10.5 21L10.5 22.1517 8.11661 23.3448C7.96854 23.4189 7.87502 23.5705 7.875 23.7361L7.875 25.002C7.06458 25.2435 6.60345 26.0964 6.84508 26.9069 7.08671 27.7174 7.93958 28.1785 8.75 27.9368 9.56042 27.6953 10.0216 26.8424 9.77992 26.0319 9.63233 25.5369 9.24505 25.1497 8.75 25.002L8.75 24.0063ZM8.96875 26.4688C8.96875 26.8312 8.67495 27.125 8.3125 27.125 7.95005 27.125 7.65625 26.8312 7.65625 26.4688 7.65625 26.1063 7.95005 25.8125 8.3125 25.8125 8.67477 25.8129 8.96836 26.1065 8.96875 26.4688Z" transform="matrix(1.03571 0 0 1 1082 458)"/><path d="M18.1562 26.4688C18.1559 27.3144 18.8412 28.0002 19.6868 28.0007 20.5325 28.0011 21.2184 27.3158 21.2188 26.4701 21.219 25.7926 20.7742 25.1956 20.125 25.002L20.125 23.7361C20.125 23.5705 20.0315 23.4189 19.8834 23.3448L17.5 22.1517 17.5 21C17.5 20.7584 17.3041 20.5625 17.0625 20.5625 16.8209 20.5625 16.625 20.7584 16.625 21L16.625 22.4219C16.625 22.5875 16.7185 22.7388 16.8666 22.8132L19.25 24.0063 19.25 25.002C18.6017 25.1961 18.1572 25.7922 18.1562 26.4688ZM19.6875 25.8125C20.0499 25.8125 20.3438 26.1063 20.3438 26.4688 20.3438 26.8312 20.0499 27.125 19.6875 27.125 19.3251 27.125 19.0312 26.8312 19.0312 26.4688 19.0316 26.1065 19.3252 25.8129 19.6875 25.8125Z" transform="matrix(1.03571 0 0 1 1082 458)"/><path d="M14 22.5312C13.7584 22.5312 13.5625 22.727 13.5625 22.9688L13.5625 25.002C12.7521 25.2435 12.2909 26.0964 12.5326 26.9069 12.7742 27.7174 13.6271 28.1785 14.4375 27.9368 15.2479 27.6953 15.709 26.8424 15.4674 26.0319 15.3198 25.5369 14.9326 25.1497 14.4375 25.002L14.4375 22.9688C14.4375 22.727 14.2416 22.5312 14 22.5312ZM14.6562 26.4688C14.6562 26.8312 14.3624 27.125 14 27.125 13.6376 27.125 13.3438 26.8312 13.3438 26.4688 13.3438 26.1063 13.6376 25.8125 14 25.8125 14.3623 25.8129 14.6559 26.1065 14.6562 26.4688Z" transform="matrix(1.03571 0 0 1 1082 458)"/></g></svg>