<svg width="121" height="121" xmlns="http://www.w3.org/2000/svg" xmlns:xlink="http://www.w3.org/1999/xlink" xml:space="preserve" overflow="hidden"><g transform="translate(-427 -300)"><path d="M487.498 347.263C481.164 347.263 476.011 352.41 476.011 358.736 476.011 365.062 481.164 370.209 487.498 370.209 493.832 370.209 498.985 365.062 498.985 358.736 498.985 352.41 493.832 347.263 487.498 347.263ZM487.498 366.668C483.119 366.668 479.556 363.109 479.556 358.736 479.556 354.362 483.119 350.803 487.498 350.803 491.878 350.803 495.44 354.362 495.44 358.736 495.44 363.109 491.878 366.668 487.498 366.668Z" fill="#FFFFFF"/><path d="M508.407 342.979 503.273 337.852C502.649 337.229 501.66 337.159 500.955 337.689L497.088 340.591C495.961 339.996 494.781 339.508 493.562 339.133L492.883 334.35C492.759 333.476 492.011 332.827 491.128 332.827L483.868 332.827C482.985 332.827 482.237 333.476 482.112 334.35L481.433 339.133C480.214 339.508 479.036 339.996 477.908 340.591L474.041 337.689C473.335 337.159 472.347 337.229 471.722 337.852L466.59 342.979C465.966 343.603 465.895 344.59 466.425 345.295L469.331 349.158C468.736 350.284 468.247 351.461 467.871 352.678L463.082 353.357C462.207 353.481 461.558 354.229 461.558 355.111L461.558 362.361C461.558 363.243 462.207 363.991 463.082 364.114L467.871 364.794C468.247 366.01 468.735 367.188 469.331 368.313L466.425 372.177C465.895 372.881 465.966 373.868 466.59 374.492L471.722 379.619C472.347 380.243 473.335 380.312 474.041 379.783L477.908 376.88C479.036 377.475 480.214 377.963 481.433 378.339L482.112 383.122C482.237 383.995 482.985 384.643 483.868 384.643L491.128 384.643C492.011 384.643 492.758 383.995 492.883 383.122L493.562 378.339C494.781 377.963 495.961 377.475 497.088 376.88L500.955 379.783C501.66 380.313 502.649 380.243 503.273 379.619L508.407 374.492C509.031 373.868 509.1 372.881 508.57 372.177L505.664 368.313C506.26 367.188 506.749 366.01 507.124 364.794L511.914 364.114C512.788 363.991 513.438 363.243 513.438 362.361L513.438 355.111C513.438 354.229 512.788 353.481 511.914 353.357L507.124 352.678C506.749 351.461 506.26 350.284 505.664 349.158L508.57 345.295C509.1 344.59 509.031 343.603 508.407 342.979ZM509.893 356.647 509.893 360.824 505.477 361.451C504.76 361.552 504.177 362.08 504.004 362.783 503.594 364.459 502.932 366.057 502.035 367.532 501.658 368.15 501.697 368.935 502.133 369.514L504.812 373.075 501.854 376.028 498.289 373.353C497.709 372.918 496.924 372.879 496.304 373.255 494.828 374.15 493.228 374.812 491.549 375.223 490.845 375.394 490.318 375.977 490.215 376.693L489.589 381.103 485.406 381.103 484.779 376.693C484.678 375.977 484.149 375.394 483.446 375.223 481.766 374.812 480.167 374.15 478.691 373.255 478.072 372.879 477.286 372.918 476.706 373.353L473.141 376.028 470.184 373.074 472.862 369.514C473.297 368.935 473.336 368.15 472.96 367.532 472.064 366.057 471.401 364.459 470.99 362.782 470.819 362.08 470.235 361.551 469.518 361.45L465.102 360.824 465.102 356.647 469.518 356.021C470.235 355.919 470.819 355.391 470.99 354.689 471.401 353.011 472.064 351.414 472.96 349.94 473.336 349.32 473.297 348.536 472.862 347.958L470.184 344.396 473.141 341.442 476.706 344.119C477.286 344.553 478.072 344.592 478.691 344.217 480.167 343.321 481.766 342.659 483.446 342.249 484.149 342.077 484.677 341.495 484.779 340.778L485.406 336.368 489.589 336.368 490.215 340.778C490.318 341.494 490.845 342.077 491.549 342.249 493.228 342.659 494.828 343.321 496.304 344.217 496.924 344.592 497.709 344.553 498.289 344.119L501.854 341.442 504.812 344.396 502.133 347.958C501.697 348.536 501.658 349.321 502.035 349.94 502.932 351.414 503.593 353.011 504.004 354.688 504.176 355.391 504.759 355.919 505.477 356.021Z" fill="#FFFFFF"/><path d="M487.497 313.923C488.477 313.923 489.27 313.131 489.27 312.153L489.27 301.771C489.27 300.792 488.477 300 487.497 300 486.519 300 485.725 300.792 485.725 301.771L485.725 312.153C485.725 313.131 486.519 313.923 487.497 313.923Z" fill="#FFFFFF"/><path d="M540.55 352.988 530.154 352.988C529.175 352.988 528.382 353.78 528.382 354.758 528.382 355.737 529.175 356.529 530.154 356.529L540.55 356.529C541.529 356.529 542.323 355.737 542.323 354.758 542.323 353.78 541.529 352.988 540.55 352.988Z" fill="#FFFFFF"/><path d="M444.84 352.988 434.444 352.988C433.466 352.988 432.672 353.78 432.672 354.758 432.672 355.737 433.466 356.529 434.444 356.529L444.84 356.529C445.819 356.529 446.612 355.737 446.612 354.758 446.612 353.78 445.819 352.988 444.84 352.988Z" fill="#FFFFFF"/><path d="M456.08 325.883C456.763 326.566 457.905 326.566 458.587 325.883 459.279 325.192 459.279 324.071 458.587 323.38L451.237 316.038C450.544 315.347 449.422 315.347 448.729 316.038 448.038 316.729 448.038 317.85 448.729 318.543Z" fill="#FFFFFF"/><path d="M448.426 337.569 444.834 336.163C443.921 335.807 442.894 336.255 442.537 337.165 442.179 338.076 442.629 339.103 443.54 339.459L447.133 340.865C448.033 341.217 449.077 340.761 449.43 339.863 449.787 338.952 449.338 337.925 448.426 337.569Z" fill="#FFFFFF"/><path d="M470.286 315.735C470.638 316.633 471.683 317.089 472.583 316.738 473.494 316.381 473.944 315.354 473.587 314.444L472.138 310.751C471.781 309.84 470.753 309.391 469.841 309.748 468.93 310.105 468.48 311.131 468.837 312.042Z" fill="#FFFFFF"/><path d="M502.411 316.738C503.311 317.089 504.355 316.633 504.708 315.735L506.157 312.043C506.513 311.131 506.065 310.105 505.153 309.748 504.241 309.392 503.213 309.84 502.856 310.75L501.407 314.444C501.05 315.354 501.5 316.38 502.411 316.738Z" fill="#FFFFFF"/><path d="M517.66 326.402C518.114 326.402 518.568 326.23 518.914 325.883L526.264 318.543C526.957 317.85 526.957 316.729 526.264 316.038 525.572 315.347 524.45 315.347 523.758 316.038L516.407 323.38C515.714 324.071 515.714 325.192 516.407 325.883 516.753 326.23 517.207 326.402 517.66 326.402Z" fill="#FFFFFF"/><path d="M532.458 337.165C532.101 336.254 531.072 335.807 530.161 336.163L526.568 337.569C525.657 337.925 525.207 338.952 525.564 339.863 525.917 340.761 526.961 341.217 527.861 340.865L531.454 339.459C532.365 339.103 532.815 338.076 532.458 337.165Z" fill="#FFFFFF"/><path d="M487.821 318.233C480.437 318.171 473.231 320.273 466.996 324.312 466.174 324.845 465.94 325.941 466.473 326.761 467.005 327.581 468.104 327.815 468.924 327.283 474.496 323.675 480.913 321.773 487.506 321.773 487.602 321.773 487.698 321.773 487.793 321.774 496.919 321.85 505.487 325.457 511.918 331.932 518.354 338.41 521.898 347.004 521.898 356.13 521.898 367.291 516.436 377.797 507.285 384.235 504.266 386.359 502.293 389.612 501.797 393.169L495.734 393.169C494.754 393.169 493.961 393.962 493.961 394.939 493.961 395.917 494.754 396.71 495.734 396.71L501.674 396.71 501.674 405.788C501.674 408.031 499.846 409.857 497.6 409.857L477.396 409.857C475.15 409.857 473.322 408.031 473.322 405.788L473.322 396.71 488.644 396.71C489.623 396.71 490.416 395.917 490.416 394.939 490.416 393.962 489.623 393.169 488.644 393.169L473.197 393.169C472.707 389.607 470.762 386.372 467.78 384.283 458.587 377.849 453.099 367.325 453.099 356.131 453.099 346.808 456.839 338.057 463.633 331.491 464.336 330.81 464.354 329.69 463.673 328.987 462.993 328.285 461.871 328.266 461.167 328.946 453.678 336.186 449.554 345.84 449.554 356.131 449.554 368.478 455.607 380.087 465.745 387.183 468.27 388.95 469.777 391.849 469.777 394.939L469.777 405.788C469.777 409.468 472.406 412.546 475.887 413.246 477.812 417.929 482.341 421 487.498 421 492.655 421 497.184 417.929 499.109 413.246 502.589 412.546 505.218 409.468 505.218 405.788L505.218 394.944C505.218 394.942 505.219 394.941 505.219 394.939 505.219 391.859 506.754 388.94 509.327 387.129 519.417 380.029 525.442 368.441 525.442 356.131 525.442 346.064 521.533 336.585 514.435 329.438 507.34 322.297 497.889 318.317 487.821 318.233ZM487.498 417.46C484.381 417.46 481.583 415.897 479.951 413.397L495.045 413.397C493.414 415.897 490.616 417.46 487.498 417.46Z" fill="#FFFFFF"/></g></svg>