<svg width="27" height="27" xmlns="http://www.w3.org/2000/svg" xmlns:xlink="http://www.w3.org/1999/xlink" xml:space="preserve" overflow="hidden"><g transform="translate(-856 -555)"><path d="M881.911 565.095C881.783 564.9 881.522 564.845 881.327 564.972 881.132 565.1 881.076 565.361 881.204 565.556 882.266 567.184 882.446 569.316 881.673 571.122 881.13 572.395 879.186 574.991 877.624 577.076 877.153 577.705 876.705 578.303 876.346 578.798 875.986 578.3 875.534 577.696 875.059 577.061 874.21 575.927 873.248 574.642 872.461 573.502 872.456 573.496 872.452 573.489 872.447 573.483 872.018 572.861 871.641 572.282 871.364 571.796 871.355 571.777 871.345 571.759 871.334 571.742 871.204 571.512 871.097 571.303 871.02 571.122 870.076 568.916 870.56 566.316 872.223 564.653 874.399 562.477 878.016 562.398 880.285 564.477 880.457 564.635 880.724 564.623 880.882 564.451 881.039 564.279 881.027 564.011 880.855 563.854 879.668 562.767 878.135 562.158 876.507 562.121 874.403 559.067 870.957 557.25 867.243 557.25 861.259 557.25 856.325 561.927 856.009 567.898 855.997 568.131 856.176 568.33 856.408 568.342 856.416 568.343 856.423 568.343 856.431 568.343 856.654 568.343 856.84 568.168 856.852 567.943 856.898 567.077 857.049 566.24 857.293 565.445L861.485 565.445C861.34 566.427 861.266 567.453 861.266 568.501 861.266 569.548 861.34 570.573 861.484 571.555L857.292 571.555C857.049 570.761 856.898 569.924 856.852 569.058 856.84 568.825 856.641 568.648 856.408 568.659 856.175 568.671 855.996 568.87 856.009 569.103 856.325 575.073 861.259 579.75 867.243 579.75 869.773 579.75 872.228 578.896 874.208 577.335 874.267 577.414 874.325 577.491 874.383 577.568 874.911 578.274 875.41 578.941 875.783 579.461 875.914 579.645 876.119 579.75 876.346 579.75 876.573 579.75 876.778 579.645 876.909 579.462 877.28 578.945 877.775 578.283 878.3 577.582 879.889 575.461 881.866 572.82 882.449 571.455 883.332 569.393 883.125 566.956 881.911 565.095ZM863.691 575.964C863.162 574.932 862.756 573.721 862.489 572.4L866.821 572.4 866.821 578.869C865.658 578.67 864.56 577.657 863.691 575.964ZM867.665 578.868 867.665 572.4 870.74 572.4C870.992 572.825 871.301 573.301 871.646 573.806 870.783 576.707 869.293 578.588 867.665 578.868ZM870.244 571.455C870.257 571.487 870.273 571.521 870.288 571.555L867.665 571.555 867.665 565.445 870.572 565.445C869.556 567.241 869.402 569.486 870.244 571.455ZM866.821 558.131 866.821 564.6 862.488 564.6C862.756 563.279 863.162 562.068 863.691 561.036 864.56 559.343 865.658 558.33 866.821 558.131ZM867.665 558.131C869.424 558.434 871.016 560.609 871.828 563.863 871.76 563.925 871.692 563.99 871.626 564.056 871.453 564.229 871.292 564.41 871.141 564.6L867.665 564.6ZM875.501 562.171C874.431 562.304 873.423 562.686 872.55 563.287 872.097 561.636 871.434 560.224 870.617 559.179 870.407 558.911 870.189 558.67 869.965 558.456 872.15 559.047 874.098 560.34 875.501 562.171ZM857.593 564.6C858.804 561.599 861.37 559.306 864.519 558.455 863.937 559.008 863.404 559.746 862.939 560.651 862.353 561.793 861.911 563.136 861.628 564.6ZM862.11 568.501C862.11 567.449 862.188 566.422 862.338 565.445L866.821 565.445 866.821 571.555 862.338 571.555C862.188 570.578 862.11 569.552 862.11 568.501ZM857.592 572.4 861.628 572.4C861.911 573.863 862.353 575.207 862.94 576.349 863.404 577.255 863.938 577.992 864.52 578.545 861.37 577.694 858.803 575.401 857.592 572.4ZM869.967 578.542C870.124 578.393 870.278 578.231 870.427 578.055 871.159 577.195 871.782 576.038 872.253 574.675 872.718 575.329 873.216 576.005 873.702 576.657 872.593 577.537 871.32 578.175 869.967 578.542ZM876.346 564.019C873.848 564.019 871.815 566.052 871.815 568.55 871.815 571.049 873.848 573.082 876.346 573.082 878.846 573.082 880.88 571.049 880.88 568.55 880.88 566.052 878.846 564.019 876.346 564.019ZM876.346 572.237C874.314 572.237 872.659 570.584 872.659 568.55 872.659 566.517 874.313 564.863 876.346 564.863 878.38 564.863 880.035 566.517 880.035 568.55 880.035 570.584 878.38 572.237 876.346 572.237ZM877.865 566.616 876.737 566.616C876.504 566.616 876.314 566.805 876.314 567.039L876.314 570.061C876.314 570.295 876.503 570.484 876.737 570.484 876.97 570.484 877.159 570.295 877.159 570.061L877.159 569.116 877.865 569.116C878.554 569.116 879.114 568.556 879.114 567.867 879.114 567.177 878.554 566.616 877.865 566.616ZM877.865 568.271 877.159 568.271 877.159 567.461 877.865 567.461C878.088 567.461 878.27 567.643 878.27 567.867 878.27 568.09 878.088 568.271 877.865 568.271ZM875.157 567.039 875.157 570.061C875.157 570.295 874.969 570.484 874.735 570.484 874.501 570.484 874.313 570.295 874.313 570.061L874.313 567.039C874.313 566.806 874.501 566.616 874.735 566.616 874.969 566.616 875.157 566.806 875.157 567.039Z"/></g></svg>