<svg width="121" height="121" xmlns="http://www.w3.org/2000/svg" xmlns:xlink="http://www.w3.org/1999/xlink" xml:space="preserve" overflow="hidden"><g transform="translate(-732 -300)"><path d="M756.301 381.199 753.77 383.725C751.915 385.58 751.915 388.597 753.77 390.452L762.545 399.228C764.4 401.083 767.418 401.083 769.272 399.228L771.798 396.702C774.867 398.459 778.134 399.811 781.537 400.732L781.537 404.309C781.537 406.933 783.673 409.069 786.297 409.069L798.704 409.069C801.328 409.069 803.464 406.934 803.464 404.309L803.464 400.731C806.874 399.803 810.14 398.451 813.197 396.701L815.729 399.228C817.584 401.083 820.601 401.083 822.456 399.228L826.844 394.84C826.844 394.84 826.844 394.839 826.844 394.839L831.222 390.455C832.123 389.558 832.62 388.363 832.62 387.089 832.62 385.815 832.123 384.619 831.225 383.726L828.699 381.2C830.457 378.128 831.81 374.861 832.729 371.46L836.306 371.46C838.93 371.46 841.065 369.328 841.065 366.707L841.065 354.3C841.065 351.676 838.93 349.541 836.306 349.541L832.729 349.541C831.805 346.125 830.453 342.857 828.699 339.8L831.222 337.277C832.123 336.381 832.619 335.186 832.619 333.912 832.619 332.638 832.123 331.442 831.225 330.549L822.456 321.773C820.601 319.918 817.584 319.918 815.73 321.772L813.197 324.3C810.14 322.55 806.874 321.198 803.463 320.27L803.463 316.692C803.463 314.071 801.328 311.939 798.704 311.939L786.297 311.939C783.672 311.939 781.537 314.071 781.537 316.692L781.537 320.27C778.121 321.199 774.854 322.55 771.798 324.299L769.272 321.773C767.418 319.918 764.4 319.918 762.545 321.773L753.769 330.548C751.915 332.403 751.915 335.421 753.769 337.275L756.296 339.801C754.547 342.857 753.196 346.124 752.267 349.541L748.695 349.541C746.071 349.541 743.936 351.676 743.936 354.3L743.936 366.707C743.936 369.328 746.071 371.46 748.695 371.46L752.271 371.46C753.194 374.873 754.545 378.14 756.301 381.199ZM746.769 366.707 746.769 354.3C746.769 353.238 747.633 352.374 748.695 352.374L753.365 352.374C754.018 352.374 754.586 351.928 754.741 351.293 755.689 347.403 757.218 343.708 759.285 340.312 759.624 339.754 759.538 339.036 759.076 338.574L755.773 335.271C755.413 334.91 755.214 334.428 755.214 333.912 755.214 333.396 755.413 332.913 755.773 332.552L764.549 323.776C765.299 323.027 766.519 323.027 767.268 323.776L770.571 327.079C771.033 327.541 771.751 327.627 772.31 327.288 775.705 325.221 779.399 323.692 783.29 322.744 783.925 322.59 784.372 322.021 784.372 321.368L784.372 316.692C784.372 315.634 785.236 314.772 786.298 314.772L798.704 314.772C799.766 314.772 800.63 315.634 800.63 316.692L800.63 321.368C800.63 322.021 801.077 322.59 801.712 322.744 805.595 323.69 809.287 325.219 812.686 327.288 813.244 327.627 813.961 327.542 814.423 327.08L817.733 323.777C818.483 323.027 819.703 323.027 820.452 323.776L829.224 332.555C829.587 332.916 829.786 333.398 829.786 333.912 829.786 334.426 829.586 334.909 829.221 335.272L825.919 338.574C825.456 339.037 825.37 339.756 825.711 340.315 827.784 343.71 829.312 347.403 830.253 351.291 830.407 351.927 830.976 352.375 831.63 352.375L836.306 352.375C837.368 352.375 838.232 353.239 838.232 354.301L838.232 366.707C838.232 367.766 837.368 368.627 836.306 368.627L831.63 368.627C830.976 368.627 830.406 369.075 830.253 369.711 829.319 373.577 827.791 377.27 825.71 380.689 825.37 381.247 825.456 381.965 825.918 382.427L829.224 385.732C829.586 386.093 829.786 386.575 829.786 387.089 829.786 387.604 829.586 388.085 829.22 388.449L820.452 397.224C819.703 397.974 818.483 397.974 817.732 397.224L814.422 393.921C813.961 393.459 813.243 393.374 812.685 393.713 809.286 395.782 805.594 397.31 801.711 398.257 801.076 398.411 800.63 398.98 800.63 399.633L800.63 404.309C800.63 405.371 799.766 406.235 798.704 406.235L786.297 406.235C785.235 406.235 784.371 405.371 784.371 404.309L784.371 399.633C784.371 398.979 783.923 398.41 783.287 398.256 779.417 397.319 775.723 395.791 772.309 393.713 772.081 393.574 771.826 393.507 771.573 393.507 771.206 393.507 770.844 393.649 770.57 393.922L767.268 397.224C766.518 397.974 765.298 397.974 764.549 397.224L755.773 388.449C755.412 388.088 755.213 387.605 755.213 387.089 755.213 386.573 755.412 386.09 755.772 385.731L759.081 382.428C759.544 381.965 759.631 381.246 759.289 380.687 757.214 377.287 755.686 373.594 754.748 369.71 754.594 369.074 754.025 368.626 753.371 368.626L748.695 368.626C747.633 368.626 746.769 367.765 746.769 366.707ZM775.401 381.788 775.401 388.177C775.401 388.96 776.036 389.594 776.818 389.594L808.183 389.594C808.965 389.594 809.6 388.96 809.6 388.177L809.6 381.788C810.373 381.165 811.116 380.503 811.811 379.807 816.968 374.65 819.807 367.794 819.807 360.5 819.807 353.207 816.968 346.35 811.811 341.193 811.116 340.498 810.373 339.835 809.6 339.212L809.6 332.823C809.6 332.041 808.965 331.406 808.183 331.406L776.818 331.406C776.036 331.406 775.401 332.041 775.401 332.823L775.401 339.212C774.628 339.835 773.885 340.498 773.19 341.193 768.033 346.35 765.193 353.206 765.193 360.5 765.193 367.794 768.033 374.65 773.19 379.807 773.885 380.502 774.628 381.165 775.401 381.788ZM806.766 386.761 778.235 386.761 778.235 382.212 806.766 382.212ZM781.269 341.622 803.732 341.622 803.732 349.249C803.732 354.949 795.609 358.047 792.5 359.022 789.392 358.047 781.269 354.95 781.269 349.249ZM792.5 361.984C795.607 362.954 803.732 366.042 803.732 371.751L803.732 379.378 781.269 379.378 781.269 371.751C781.269 366.042 789.394 362.954 792.5 361.984ZM816.974 360.5C816.974 367.037 814.429 373.182 809.807 377.803 809.258 378.352 808.677 378.879 808.073 379.378L806.565 379.378 806.565 371.751C806.565 365.917 801.112 362.398 796.674 360.501 801.112 358.6 806.565 355.077 806.565 349.249L806.565 341.622 808.073 341.622C808.677 342.122 809.259 342.649 809.807 343.197 814.429 347.819 816.974 353.964 816.974 360.5ZM778.235 334.24 806.766 334.24 806.766 338.789 778.235 338.789ZM775.194 343.197C775.742 342.648 776.324 342.122 776.928 341.622L778.436 341.622 778.436 349.249C778.436 355.077 783.889 358.599 788.327 360.501 783.889 362.398 778.436 365.917 778.436 371.751L778.436 379.378 776.928 379.378C776.324 378.878 775.742 378.352 775.194 377.803 770.573 373.182 768.027 367.037 768.027 360.5 768.027 353.963 770.573 347.818 775.194 343.197ZM851.849 365.457C850.686 379.465 844.563 392.659 834.608 402.611 823.36 413.859 808.405 420.053 792.497 420.053 778.713 420.053 765.646 415.399 755.084 406.839L756.301 409.783C756.601 410.506 756.257 411.335 755.534 411.634 755.357 411.707 755.173 411.742 754.993 411.742 754.436 411.742 753.909 411.412 753.683 410.866L750.079 402.15C750.079 402.15 750.078 402.148 750.078 402.148 750.073 402.136 750.071 402.124 750.066 402.113 750.041 402.046 750.021 401.979 750.007 401.911 750.001 401.887 749.997 401.863 749.993 401.839 749.983 401.775 749.977 401.712 749.975 401.648 749.974 401.63 749.973 401.612 749.973 401.594 749.973 401.514 749.981 401.434 749.995 401.355 749.999 401.336 750.005 401.317 750.009 401.298 750.023 401.237 750.041 401.176 750.063 401.117 750.071 401.094 750.08 401.071 750.089 401.048 750.121 400.974 750.158 400.902 750.203 400.833 750.207 400.827 750.212 400.821 750.217 400.815 750.249 400.767 750.284 400.72 750.323 400.675 750.336 400.66 750.351 400.647 750.365 400.633 750.373 400.625 750.379 400.615 750.387 400.607 750.395 400.598 750.406 400.592 750.415 400.584 750.469 400.533 750.526 400.485 750.586 400.444 750.597 400.437 750.606 400.428 750.616 400.422 750.684 400.377 750.756 400.34 750.83 400.309 750.852 400.299 750.875 400.291 750.897 400.283 750.956 400.261 751.016 400.243 751.077 400.23 751.097 400.225 751.117 400.219 751.137 400.216 751.216 400.201 751.296 400.193 751.377 400.193 751.393 400.193 751.408 400.195 751.424 400.195 751.49 400.197 751.555 400.203 751.62 400.214 751.645 400.218 751.67 400.223 751.695 400.228 751.714 400.232 751.733 400.234 751.752 400.239L760.87 402.664C761.626 402.866 762.076 403.642 761.875 404.398 761.674 405.154 760.897 405.604 760.141 405.403L756.672 404.48C766.765 412.732 779.285 417.219 792.497 417.219 807.648 417.219 821.891 411.32 832.604 400.607 852.096 381.121 854.801 350.609 839.036 328.054 838.588 327.413 838.744 326.529 839.386 326.081 840.027 325.633 840.91 325.789 841.359 326.43 849.273 337.754 852.999 351.614 851.849 365.457ZM746.572 393.802C747.032 394.435 746.892 395.321 746.259 395.781 746.008 395.964 745.716 396.052 745.427 396.052 744.989 396.052 744.557 395.85 744.28 395.468 736.034 384.124 732.067 370.133 733.11 356.072 734.163 341.863 740.299 328.48 750.386 318.389 761.634 307.142 776.59 300.947 792.497 300.947 806.424 300.947 819.621 305.695 830.239 314.425L829.068 311.592C828.768 310.869 829.112 310.041 829.835 309.742 830.559 309.443 831.387 309.786 831.686 310.51L835.29 319.225C835.29 319.225 835.291 319.227 835.291 319.227 835.296 319.239 835.298 319.251 835.303 319.262 835.328 319.329 835.347 319.396 835.363 319.464 835.368 319.488 835.372 319.512 835.376 319.536 835.386 319.6 835.392 319.663 835.394 319.727 835.395 319.745 835.396 319.763 835.396 319.781 835.395 319.861 835.388 319.941 835.373 320.02 835.37 320.039 835.364 320.058 835.36 320.077 835.346 320.138 835.328 320.199 835.306 320.258 835.298 320.281 835.289 320.304 835.28 320.327 835.247 320.401 835.211 320.474 835.166 320.543 835.162 320.548 835.157 320.553 835.153 320.559 835.121 320.608 835.086 320.655 835.047 320.7 835.031 320.718 835.013 320.734 834.997 320.751 834.991 320.756 834.988 320.763 834.983 320.768 834.979 320.772 834.974 320.775 834.969 320.779 834.91 320.837 834.845 320.89 834.777 320.936 834.765 320.944 834.753 320.952 834.74 320.96 834.673 321.003 834.604 321.04 834.531 321.07 834.517 321.076 834.503 321.081 834.488 321.087 834.414 321.115 834.339 321.139 834.262 321.154 834.251 321.156 834.24 321.158 834.23 321.159 834.148 321.174 834.065 321.183 833.981 321.183 833.902 321.183 833.822 321.174 833.743 321.16 833.721 321.157 833.699 321.152 833.677 321.147 833.657 321.143 833.637 321.141 833.617 321.135L824.506 318.71C823.75 318.509 823.3 317.733 823.502 316.977 823.703 316.221 824.479 315.771 825.235 315.972L828.798 316.921C806.537 298.35 773.279 299.505 752.39 320.393 732.537 340.253 730.09 371.126 746.572 393.802Z" fill="#FFFFFF"/></g></svg>