<svg width="25" height="25" xmlns="http://www.w3.org/2000/svg" xmlns:xlink="http://www.w3.org/1999/xlink" xml:space="preserve" overflow="hidden"><g transform="translate(-1083 -335)"><path d="M1084.96 337.238C1084.8 337.347 1084.61 337.41 1084.4 337.41 1083.84 337.41 1083.39 336.958 1083.39 336.401 1083.39 335.844 1083.84 335.392 1084.4 335.392 1084.96 335.392 1085.41 335.844 1085.41 336.401 1085.41 336.5 1085.4 336.595 1085.37 336.685 1086.48 337.499 1088.64 339.076 1090.69 340.579 1091.77 339.3 1093.3 338.41 1095.16 338.09L1095.16 337.35C1094.77 337.21 1094.49 336.837 1094.49 336.401 1094.49 335.844 1094.94 335.392 1095.5 335.392 1096.06 335.392 1096.51 335.844 1096.51 336.401 1096.51 336.837 1096.23 337.21 1095.84 337.35L1095.84 338C1095.96 337.989 1096.08 337.98 1096.2 337.974 1098.69 337.841 1100.56 338.415 1101.9 339.431 1103.35 338.363 1104.95 337.182 1105.63 336.685 1105.6 336.595 1105.59 336.5 1105.59 336.401 1105.59 335.844 1106.04 335.392 1106.6 335.392 1107.16 335.392 1107.61 335.844 1107.61 336.401 1107.61 336.958 1107.16 337.41 1106.6 337.41 1106.39 337.41 1106.2 337.347 1106.04 337.239 1105.38 337.72 1103.85 338.847 1102.43 339.889 1103.77 341.175 1104.44 342.987 1104.53 344.983 1104.72 349.21 1103.21 351.335 1101.97 353.018 1101.21 354.043 1100.55 354.877 1100.56 355.993L1100.56 355.997 1100.56 359.265C1100.56 359.454 1100.41 359.608 1100.22 359.608L1092.88 359.608C1092.69 359.608 1092.54 359.454 1092.54 359.265L1092.54 356.329C1090.05 356.161 1088.93 354.162 1088.93 352.029L1088.93 351.325 1087.41 351.325C1086.67 351.325 1086.23 350.537 1086.57 349.903 1086.57 349.903 1088.93 345.586 1088.93 345.586 1088.94 343.893 1089.42 342.363 1090.27 341.125 1088.22 339.624 1086.07 338.051 1084.96 337.238ZM1095.16 338.789C1093.54 339.094 1092.21 339.878 1091.25 340.991 1092.02 341.551 1092.75 342.089 1093.4 342.561 1093.71 342.07 1094.26 341.745 1094.88 341.745 1094.98 341.745 1095.07 341.752 1095.16 341.766ZM1101.32 339.857C1100.1 339.001 1098.43 338.542 1096.24 338.659 1096.11 338.666 1095.97 338.677 1095.84 338.69L1095.84 341.38C1096.17 341.139 1096.57 340.996 1097 340.996 1097.52 340.996 1098 341.202 1098.34 341.538 1098.59 341.449 1098.85 341.401 1099.12 341.401 1099.15 341.401 1099.18 341.401 1099.21 341.403 1099.53 341.173 1100.35 340.569 1101.32 339.857ZM1090.84 341.536C1090.05 342.682 1089.61 344.103 1089.61 345.674 1089.61 345.731 1089.6 345.788 1089.57 345.838L1087.18 350.231 1087.18 350.232C1087.08 350.412 1087.2 350.639 1087.41 350.639L1089.27 350.639C1089.46 350.639 1089.61 350.793 1089.61 350.982L1089.61 352.029C1089.61 353.888 1090.61 355.654 1092.88 355.654 1093.07 355.654 1093.22 355.808 1093.22 355.997L1093.22 358.922 1099.87 358.922 1099.87 356C1099.86 354.737 1100.56 353.77 1101.41 352.611 1102.59 351.02 1104.03 349.012 1103.84 345.015L1103.84 345.015C1103.76 343.19 1103.16 341.527 1101.93 340.36 1101.91 340.341 1101.89 340.322 1101.87 340.303 1101.16 340.822 1100.52 341.293 1100.08 341.615 1100.85 341.977 1101.39 342.758 1101.39 343.663 1101.39 344.22 1101.18 344.73 1100.85 345.125 1100.99 345.512 1100.98 345.886 1100.85 346.215 1100.7 346.6 1100.38 346.929 1099.93 347.14L1099.93 347.14C1099.78 347.212 1099.67 347.296 1099.61 347.393 1099.52 347.534 1099.52 347.695 1099.55 347.834 1099.61 348.098 1099.76 348.307 1099.76 348.307 1099.84 348.411 1099.85 348.549 1099.79 348.664 1099.73 348.778 1099.61 348.85 1099.48 348.85L1097.92 348.85C1097.82 348.85 1097.73 348.81 1097.67 348.74 1097.6 348.67 1097.57 348.576 1097.58 348.48 1097.58 348.48 1097.65 347.583 1096.87 347.171 1096.47 347.265 1096.13 347.283 1095.84 347.252L1095.84 351.203C1096.23 351.343 1096.51 351.715 1096.51 352.152 1096.51 352.709 1096.06 353.161 1095.5 353.161 1094.94 353.161 1094.49 352.709 1094.49 352.152 1094.49 351.715 1094.77 351.343 1095.16 351.203L1095.16 347.066C1094.82 346.91 1094.58 346.697 1094.4 346.555 1094.35 346.509 1094.31 346.479 1094.27 346.474 1094.24 346.471 1094.22 346.482 1094.2 346.49 1094.15 346.506 1094.1 346.527 1094.04 346.546 1093.91 346.59 1093.75 346.63 1093.53 346.63 1092.56 346.63 1091.78 345.844 1091.78 344.873 1091.78 344.06 1092.33 343.377 1093.08 343.176 1092.41 342.687 1091.64 342.123 1090.84 341.536ZM1095.5 336.078C1095.32 336.078 1095.18 336.223 1095.18 336.401 1095.18 336.579 1095.32 336.724 1095.5 336.724 1095.68 336.724 1095.82 336.579 1095.82 336.401 1095.82 336.223 1095.68 336.078 1095.5 336.078ZM1084.4 336.078C1084.22 336.078 1084.08 336.223 1084.08 336.401 1084.08 336.579 1084.22 336.724 1084.4 336.724 1084.58 336.724 1084.72 336.579 1084.72 336.401 1084.72 336.223 1084.58 336.078 1084.4 336.078ZM1106.6 336.078C1106.42 336.078 1106.28 336.223 1106.28 336.401 1106.28 336.579 1106.42 336.724 1106.6 336.724 1106.78 336.724 1106.92 336.579 1106.92 336.401 1106.92 336.223 1106.78 336.078 1106.6 336.078ZM1094.83 346.019C1095.14 346.263 1095.66 346.787 1096.82 346.477 1096.89 346.457 1096.97 346.463 1097.04 346.494 1097.95 346.888 1098.19 347.691 1098.25 348.164L1098.93 348.164C1098.91 348.106 1098.9 348.044 1098.88 347.981 1098.82 347.675 1098.83 347.329 1099.03 347.019 1099.15 346.833 1099.34 346.657 1099.64 346.518 1099.92 346.389 1100.12 346.199 1100.21 345.965 1100.3 345.74 1100.28 345.481 1100.14 345.213 1100.07 345.078 1100.1 344.911 1100.21 344.806 1100.51 344.519 1100.7 344.113 1100.7 343.663 1100.7 342.793 1099.99 342.087 1099.12 342.087 1098.87 342.087 1098.62 342.148 1098.41 342.257 1098.26 342.331 1098.08 342.291 1097.98 342.162 1097.76 341.87 1097.4 341.682 1097 341.682 1096.5 341.682 1096.07 341.977 1095.87 342.404 1095.83 342.49 1095.76 342.555 1095.67 342.585 1095.58 342.615 1095.48 342.606 1095.39 342.561 1095.24 342.478 1095.07 342.431 1094.88 342.431 1094.3 342.431 1093.83 342.893 1093.81 343.47 1093.81 343.649 1093.67 343.795 1093.49 343.803 1092.92 343.828 1092.46 344.297 1092.46 344.873 1092.46 345.465 1092.94 345.944 1093.53 345.944 1093.77 345.944 1093.9 345.863 1094.02 345.826 1094.26 345.755 1094.48 345.734 1094.83 346.019ZM1095.5 351.829C1095.32 351.829 1095.18 351.974 1095.18 352.152 1095.18 352.33 1095.32 352.474 1095.5 352.474 1095.68 352.474 1095.82 352.33 1095.82 352.152 1095.82 351.974 1095.68 351.829 1095.5 351.829Z" fill-rule="evenodd"/></g></svg>