<svg width="87" height="87" xmlns="http://www.w3.org/2000/svg" xmlns:xlink="http://www.w3.org/1999/xlink" xml:space="preserve" overflow="hidden"><g transform="translate(-699 -327)"><path d="M743.454 401.312C742.53 401.312 741.608 401.083 740.793 400.635L738.987 399.659C738.327 399.302 738.082 398.476 738.441 397.815 738.797 397.155 739.624 396.91 740.284 397.269L742.095 398.248C742.737 398.598 743.541 398.685 744.248 398.479 744.659 398.359 745.213 398.087 745.545 397.484 746.045 396.57 745.866 395.466 745.404 394.928 744.95 394.398 744.971 393.612 745.453 393.106 745.874 392.669 746.586 392.5 747.122 392.783L751.135 394.884C752.364 395.553 753.897 395.159 754.511 394.034 754.99 393.155 754.74 392.052 754.354 391.494L750.64 388.911C750.047 388.498 749.881 387.693 750.259 387.079 750.637 386.462 751.428 386.252 752.067 386.6L759.133 390.461C759.789 390.82 760.4 390.757 760.797 390.638 761.42 390.456 761.966 390.007 762.292 389.406 762.945 388.215 762.6 386.905 761.477 386.29L756.969 383.36C756.366 382.965 756.175 382.172 756.531 381.546 756.888 380.924 757.673 380.682 758.315 381.003L767.502 385.562C768.668 386.195 770.055 385.736 770.715 384.534 771.338 383.384 770.881 381.87 769.709 381.231 769.049 380.872 768.807 380.046 769.166 379.388 769.524 378.73 770.354 378.482 771.009 378.844 773.472 380.187 774.429 383.39 773.102 385.836 771.71 388.376 768.706 389.316 766.248 387.973L765.291 387.5C765.444 388.58 765.231 389.703 764.677 390.711 764.008 391.94 762.872 392.864 761.561 393.248 760.3 393.618 758.973 393.473 757.826 392.848L757.472 392.658C757.524 393.547 757.358 394.479 756.89 395.336 755.569 397.753 752.347 398.647 749.846 397.28L748.547 396.6C748.503 397.356 748.299 398.112 747.929 398.786 747.326 399.895 746.29 400.711 745.012 401.089 744.504 401.238 743.979 401.312 743.454 401.312Z"/><path d="M715.334 376.655C715.128 376.655 714.921 376.609 714.723 376.508L710.204 374.23C709.532 373.893 709.263 373.075 709.603 372.406 709.94 371.734 710.756 371.46 711.427 371.805L715.946 374.083C716.617 374.42 716.887 375.239 716.547 375.908 716.31 376.381 715.832 376.655 715.334 376.655Z"/><path d="M726.188 358.945C726.101 358.945 726.011 358.937 725.921 358.918L716.694 357.094C715.957 356.947 715.478 356.235 715.625 355.498 715.772 354.761 716.487 354.272 717.221 354.429L726.448 356.254C727.185 356.401 727.664 357.113 727.517 357.85 727.392 358.497 726.824 358.945 726.188 358.945Z"/><path d="M770.324 381.38C770.098 381.38 769.872 381.323 769.671 381.212L760.762 376.337 748.617 368.801C747.978 368.407 747.777 367.572 748.171 366.93 748.563 366.289 749.4 366.09 750.042 366.484L762.127 373.988 769.584 378.066C770.052 376.438 770.016 375.239 770.014 375.225 769.989 374.665 770.307 374.149 770.818 373.92L773.63 372.67C774.318 372.37 775.122 372.675 775.424 373.36 775.729 374.045 775.421 374.85 774.734 375.155L772.7 376.06C772.624 377.052 772.371 378.713 771.572 380.562 771.419 380.913 771.126 381.185 770.767 381.307 770.623 381.356 770.473 381.38 770.324 381.38Z"/><path d="M731.916 374.13C730.005 374.13 728.161 373.298 726.655 371.74 726.31 371.381 726.188 370.864 726.334 370.389 726.797 368.901 727.297 367.512 727.759 366.226 728.504 364.149 729.151 362.357 729.344 360.974 729.398 360.59 729.61 360.248 729.931 360.033L731.326 359.081C734.472 356.917 739.738 353.29 742.601 352.11 744.313 351.406 753.367 353.152 760.659 354.745 760.852 354.786 761.034 354.87 761.189 354.99 761.499 355.223 761.784 355.465 762.053 355.713L767.265 354.277C767.988 354.076 768.739 354.503 768.937 355.226 769.136 355.949 768.711 356.7 767.988 356.898L762.031 358.54C761.558 358.673 761.05 358.538 760.702 358.184 760.417 357.896 760.112 357.61 759.775 357.336 752.728 355.805 744.816 354.408 743.549 354.652 741.04 355.694 735.722 359.356 732.865 361.322L731.932 361.958C731.636 363.475 731.019 365.193 730.317 367.148 729.953 368.162 729.564 369.241 729.189 370.383 730.41 371.367 731.584 371.476 732.386 371.384 733.585 371.24 734.7 370.514 735.295 369.494 735.763 368.689 736.394 367.088 736.826 365.598 736.976 365.082 737.419 364.701 737.954 364.63 738.786 364.519 742.095 363.82 744.052 363.355 744.781 363.173 745.518 363.635 745.689 364.364 745.863 365.095 745.412 365.826 744.68 366 743.193 366.354 740.659 366.906 739.186 367.18 738.789 368.404 738.221 369.877 737.647 370.862 736.619 372.629 734.773 373.833 732.718 374.083 732.449 374.116 732.182 374.13 731.916 374.13Z"/><path d="M736.122 401.132C734.915 401.132 733.784 400.662 732.935 399.811L732.049 398.916C731.206 398.065 730.747 396.934 730.75 395.735 730.752 394.531 731.223 393.405 732.074 392.563L733.865 390.801C735.562 389.121 738.539 389.134 740.219 390.836L741.1 391.72C742.845 393.487 742.832 396.339 741.075 398.079L739.284 399.841C738.441 400.67 737.318 401.132 736.122 401.132ZM737.027 392.223C736.554 392.223 736.108 392.405 735.777 392.734L733.988 394.493C733.659 394.819 733.474 395.265 733.471 395.741 733.471 396.219 733.65 396.665 733.982 397L734.866 397.891C735.526 398.557 736.704 398.56 737.375 397.897L739.164 396.138C739.855 395.455 739.857 394.324 739.167 393.628L738.289 392.748C737.954 392.408 737.508 392.223 737.027 392.223Z"/><path d="M717.322 384.836C716.115 384.836 714.981 384.366 714.133 383.512L713.249 382.623C711.504 380.858 711.517 378.009 713.273 376.266L715.065 374.505C716.762 372.827 719.733 372.835 721.416 374.535L722.3 375.426C723.143 376.277 723.602 377.406 723.597 378.61 723.591 379.812 723.118 380.937 722.27 381.78L720.481 383.539C719.641 384.374 718.518 384.836 717.322 384.836ZM718.227 375.927C717.754 375.927 717.308 376.109 716.974 376.438L715.185 378.197C714.494 378.882 714.491 380.01 715.179 380.706L716.06 381.592C716.726 382.264 717.901 382.267 718.57 381.603L720.361 379.842C720.693 379.515 720.875 379.072 720.878 378.596 720.88 378.121 720.701 377.675 720.369 377.34L719.486 376.449C719.154 376.112 718.708 375.927 718.227 375.927Z"/><path d="M721.992 391.943C720.783 391.943 719.649 391.472 718.803 390.613L717.92 389.724C717.077 388.879 716.615 387.75 716.617 386.552 716.62 385.347 717.093 384.219 717.947 383.373L721.506 379.842C723.205 378.156 726.171 378.17 727.86 379.869L728.743 380.763C729.586 381.612 730.045 382.74 730.04 383.941 730.035 385.146 729.564 386.271 728.711 387.114L725.154 390.641C724.312 391.481 723.186 391.943 721.992 391.943ZM724.668 381.261C724.195 381.261 723.752 381.44 723.42 381.772L719.861 385.304C719.524 385.638 719.339 386.084 719.336 386.56 719.336 387.033 719.516 387.476 719.847 387.808L720.734 388.699C721.397 389.374 722.572 389.371 723.24 388.71L726.799 385.181C727.136 384.85 727.321 384.404 727.321 383.928 727.324 383.452 727.145 383.009 726.813 382.677L725.929 381.783C725.595 381.448 725.146 381.261 724.668 381.261Z"/><path d="M729.058 396.537C727.849 396.537 726.715 396.064 725.867 395.208L724.986 394.316C724.143 393.471 723.681 392.34 723.684 391.141 723.686 389.936 724.157 388.811 725.008 387.968L727.686 385.323C729.385 383.64 732.356 383.653 734.039 385.355L734.92 386.244C736.66 388.001 736.647 390.85 734.896 392.595L732.22 395.241C731.378 396.075 730.255 396.537 729.058 396.537ZM730.847 386.742C730.374 386.742 729.931 386.924 729.6 387.253L726.922 389.898C726.587 390.23 726.405 390.673 726.402 391.149 726.4 391.625 726.582 392.068 726.913 392.4L727.8 393.294C728.463 393.968 729.638 393.968 730.306 393.308L732.982 390.662C733.672 389.974 733.678 388.849 732.99 388.153L732.109 387.264C731.777 386.927 731.329 386.742 730.847 386.742Z"/><path d="M775.889 379.847C775.693 379.847 775.495 379.804 775.315 379.719 774.984 379.564 774.728 379.282 774.608 378.936L765.832 353.867C765.593 353.182 765.936 352.426 766.61 352.157L781.378 346.238C782.077 345.961 782.865 346.298 783.145 346.994 783.425 347.69 783.086 348.481 782.39 348.761L768.826 354.196 776.71 376.723 781.65 374.861C782.354 374.597 783.137 374.951 783.401 375.655 783.667 376.356 783.311 377.142 782.607 377.406L776.365 379.757C776.215 379.817 776.052 379.847 775.889 379.847Z"/><path d="M708.431 379.76C708.287 379.76 708.143 379.738 707.999 379.689L702.624 377.89C701.912 377.65 701.528 376.881 701.768 376.169 702.007 375.456 702.782 375.076 703.489 375.312L707.591 376.685 715.503 354.087 702.703 348.693C702.01 348.402 701.686 347.605 701.977 346.912 702.271 346.222 703.067 345.903 703.758 346.189L717.732 352.08C718.393 352.361 718.725 353.105 718.488 353.782L709.712 378.852C709.519 379.409 708.991 379.76 708.431 379.76Z"/></g></svg>