<svg width="28" height="29" xmlns="http://www.w3.org/2000/svg" xmlns:xlink="http://www.w3.org/1999/xlink" xml:space="preserve" overflow="hidden"><defs><clipPath id="clip0"><rect x="761" y="333" width="28" height="29"/></clipPath></defs><g clip-path="url(#clip0)" transform="translate(-761 -333)"><path d="M26.1062 15.0188C25.3315 14.2439 24.0753 14.2437 23.3004 15.0185 23.3003 15.0185 23.3002 15.0187 23.3001 15.0188L19.9035 18.4153C19.6 17.8534 19.0137 17.5023 18.375 17.5L13.4066 17.5C11.7108 15.4477 8.67247 15.1586 6.62016 16.8543 6.50265 16.9514 6.38982 17.054 6.28202 17.1618L4.375 19.0688 3.80931 18.5032C3.63857 18.3323 3.36167 18.3323 3.19083 18.503 3.19077 18.5031 3.19072 18.5031 3.19066 18.5032L1.44066 20.2532C1.26983 20.4239 1.26975 20.7008 1.4405 20.8717 1.44055 20.8717 1.4406 20.8718 1.44066 20.8719L8.44064 27.8719C8.6114 28.0427 8.88829 28.0427 9.05914 27.872 9.05923 27.8719 9.05927 27.8719 9.05931 27.8719L10.8093 26.1219C10.9802 25.9511 10.9802 25.6742 10.8095 25.5034 10.8094 25.5033 10.8094 25.5032 10.8093 25.5032L10.2437 24.9375 10.7343 24.4468C10.9811 24.2016 11.3145 24.0635 11.6623 24.0625L18.0565 24.0625C19.2175 24.0657 20.3315 23.6043 21.1502 22.781L26.1062 17.8249C26.8811 17.0502 26.8813 15.794 26.1065 15.0191 26.1065 15.019 26.1063 15.0189 26.1062 15.0188ZM8.75 26.9438 2.36865 20.5625 3.5 19.4312 9.88133 25.8125ZM25.4876 17.2063 20.5315 22.1623C19.8765 22.8209 18.9853 23.19 18.0565 23.1875L11.6623 23.1875C11.0819 23.1859 10.525 23.4166 10.1157 23.8282L9.625 24.3188 4.99367 19.6875 6.90069 17.7805C8.44156 16.2397 10.9397 16.2399 12.4805 17.7807 12.5887 17.8889 12.6905 18.0033 12.7854 18.1234L12.8527 18.2086C12.9356 18.3137 13.062 18.375 13.1959 18.375L18.375 18.375C18.8583 18.375 19.25 18.7667 19.25 19.25 19.25 19.7333 18.8583 20.125 18.375 20.125L12.25 20.125C12.0084 20.125 11.8125 20.3209 11.8125 20.5625 11.8125 20.8041 12.0084 21 12.25 21L18.375 21C19.2608 20.9972 20.0042 20.3316 20.1046 19.4515L23.9187 15.6374C24.3577 15.2183 25.0486 15.2183 25.4876 15.6374 25.9208 16.0706 25.9208 16.773 25.4876 17.2062 25.4876 17.2062 25.4876 17.2062 25.4876 17.2063Z" transform="matrix(1 0 0 1.03571 761 333)"/><path d="M8.638 8.91529C8.63188 8.92382 8.62269 8.92867 8.61713 8.93777 8.61569 8.94014 8.61577 8.94289 8.61438 8.9453 7.28376 10.6353 6.56097 12.7241 6.5625 14.875 6.5625 14.9466 6.56294 15.0177 6.56784 15.0891 6.58381 15.3181 6.77416 15.4959 7.00385 15.4962 7.01409 15.4962 7.02437 15.4958 7.03461 15.4952 7.27558 15.4784 7.45741 15.2695 7.44069 15.0285 7.44069 15.0285 7.44069 15.0284 7.44069 15.0284 7.43706 14.9771 7.4375 14.9261 7.4375 14.875 7.43789 13.0361 8.02147 11.2447 9.10433 9.75844 10.3416 10.5663 11.0658 11.3468 11.0956 11.9283 11.0498 12.4814 10.8751 13.0161 10.5854 13.4894 10.4566 13.7554 10.3214 14.0353 10.1967 14.3349 10.1038 14.5581 10.2094 14.8142 10.4325 14.907 10.6556 14.9999 10.9117 14.8943 11.0046 14.6712 11.1227 14.3875 11.2511 14.1226 11.3731 13.8708 11.7363 13.2687 11.9414 12.5845 11.9693 11.8819 11.9241 10.9995 11.1403 10.0559 9.65479 9.07406 10.3246 8.31578 11.1202 7.67874 12.0067 7.19092 12.8587 8.85137 13.8841 9.72777 15.0036 9.72777 15.085 9.72777 15.1664 9.72322 15.2474 9.71408 16.023 9.66468 16.7633 9.37186 17.3628 8.87731 17.748 8.57951 17.9076 8.45648 18.7907 8.76496 19.6155 9.05209 20.485 8.69212 21.2727 7.75784 21.9546 8.24631 22.5627 8.83019 23.0785 9.49161 22.5518 10.054 22.1374 10.7118 21.8575 11.4297 21.4843 12.2444 21.232 12.7463 20.768 12.7898 20.4666 12.8086 20.1643 12.8073 19.8631 12.786 18.7087 12.7291 17.2729 12.6619 16.2473 14.678 16.0148 15.1323 15.8585 15.6218 15.7848 16.1268 15.7514 16.3661 15.9181 16.5872 16.1574 16.6207 16.1777 16.6236 16.1982 16.625 16.2187 16.625 16.4367 16.6247 16.6211 16.464 16.6513 16.2482 16.7108 15.8384 16.8381 15.4414 17.0279 15.0735 17.7961 13.5632 18.6907 13.6073 19.8214 13.6599 20.1634 13.6839 20.5065 13.6843 20.8485 13.6612 21.8408 13.5676 22.2537 12.6659 22.653 11.7939 22.8792 11.2218 23.1959 10.6898 23.591 10.2184 24.1762 11.1443 24.5806 12.1727 24.7831 13.2491 24.8272 13.4866 25.0555 13.6434 25.2931 13.5993 25.5306 13.5552 25.6874 13.3268 25.6433 13.0893 25.6432 13.089 25.6431 13.0887 25.6431 13.0885 24.8139 8.70629 21.0805 5.46927 16.625 5.26942L16.625 4.78603C16.6251 4.28608 16.9104 3.83001 17.3599 3.61122 17.8524 4.18516 18.571 4.51553 19.3274 4.51579 19.6818 4.51272 20.0331 4.44959 20.3664 4.32907 20.9244 4.13374 21.4537 3.86431 21.9399 3.528 22.3693 3.14263 22.9796 3.03297 23.5162 3.24474 23.7503 3.30477 23.9887 3.1637 24.0488 2.92964 24.0826 2.79761 24.0531 2.65734 23.9687 2.55025 23.8749 2.43103 21.6473-0.359529 19.5029 0.0397337 17.4331 0.425539 17.1906 1.68097 17.0897 2.7697 16.7308 2.92177 16.4192 3.16735 16.1875 3.48083 15.9558 3.16729 15.6442 2.92166 15.2852 2.76957 15.1843 1.68088 14.9419 0.425512 12.8721 0.0397337 10.7275-0.361664 8.50006 2.43124 8.4063 2.55023 8.25681 2.74008 8.28949 3.01517 8.47936 3.16466 8.58642 3.24898 8.72672 3.27859 8.85872 3.24472 9.3954 3.03282 10.0057 3.1425 10.435 3.52798 10.9213 3.86429 11.4506 4.13373 12.0086 4.32906 12.3419 4.44973 12.6932 4.51286 13.0477 4.51579 13.804 4.51548 14.5226 4.1851 15.0151 3.61116 15.4647 3.82998 15.7499 4.28607 15.75 4.78603L15.75 5.26111C12.9605 5.38619 10.364 6.72031 8.638 8.91529ZM19.6631 0.89978C20.6217 0.719696 21.7675 1.55218 22.5477 2.29751 22.1522 2.3797 21.7805 2.55022 21.4602 2.79632 21.0331 3.09338 20.5677 3.33117 20.0767 3.5032 19.4593 3.77258 18.7428 3.67172 18.2238 3.24234L19.3801 2.75702C19.6031 2.66413 19.7086 2.40803 19.6157 2.18501 19.5229 1.96198 19.2668 1.85647 19.0437 1.94936 19.0429 1.9497 19.0421 1.95003 19.0413 1.95038L18.0167 2.38048C18.1383 1.63211 18.4455 1.12686 19.6631 0.89978ZM12.2983 3.5032C11.8073 3.33117 11.3419 3.09338 10.9148 2.79632 10.5943 2.54985 10.222 2.37923 9.82603 2.29731 10.6049 1.55177 11.7474 0.720562 12.7119 0.899789 13.9295 1.12682 14.2367 1.63216 14.3583 2.38041L13.3337 1.95038C13.111 1.85682 12.8545 1.96154 12.761 2.18429 12.6674 2.40704 12.7722 2.66346 12.9949 2.75702L14.1514 3.24236C13.6322 3.67147 12.9158 3.7723 12.2983 3.5032ZM19.0791 7.93866C17.8409 7.50671 17.3835 7.75561 16.8277 8.18497 16.3545 8.58016 15.7661 8.81151 15.1505 8.84441 14.114 8.96324 13.2797 7.76121 12.789 6.81222 15.302 5.75278 18.1653 5.92567 20.5327 7.27978 20.1535 7.70665 19.6187 8.12718 19.0791 7.93866Z" transform="matrix(1 0 0 1.03571 761 333)"/></g></svg>