<svg width="121" height="121" xmlns="http://www.w3.org/2000/svg" xmlns:xlink="http://www.w3.org/1999/xlink" xml:space="preserve" overflow="hidden"><g transform="translate(-1036 -300)"><path d="M1156.28 335.551C1156.27 335.505 1156.26 335.46 1156.25 335.414 1155.57 331.807 1154.45 328.357 1152.94 325.121 1152.9 324.998 1152.84 324.879 1152.77 324.765 1151.37 321.826 1149.64 319.067 1147.64 316.537 1147.56 316.412 1147.47 316.294 1147.37 316.187 1147.35 316.172 1147.34 316.16 1147.32 316.146 1145.36 313.718 1143.13 311.505 1140.69 309.55 1140.68 309.535 1140.67 309.52 1140.65 309.505 1140.54 309.395 1140.42 309.304 1140.29 309.23 1137.75 307.24 1134.99 305.527 1132.04 304.136 1131.92 304.067 1131.81 304.012 1131.68 303.971 1128.43 302.47 1124.96 301.359 1121.34 300.7 1121.29 300.69 1121.25 300.682 1121.2 300.675 1118.72 300.232 1116.16 300 1113.55 300 1111.54 300 1109.57 300.14 1107.63 300.404 1107.63 300.405 1107.62 300.406 1107.61 300.407 1089.26 302.925 1074.53 316.945 1070.94 334.939 1066.23 335.877 1061.69 337.59 1057.53 340.024 1056.68 340.52 1056.4 341.608 1056.9 342.454 1057.39 343.301 1058.48 343.585 1059.33 343.09 1062.77 341.075 1066.49 339.6 1070.36 338.697 1070.19 340.259 1070.1 341.844 1070.1 343.451 1070.1 346.058 1070.33 348.613 1070.77 351.095 1070.78 351.144 1070.79 351.192 1070.8 351.24 1071.46 354.864 1072.57 358.332 1074.07 361.585 1074.11 361.708 1074.16 361.826 1074.23 361.939 1075.63 364.887 1077.34 367.655 1079.33 370.195 1079.4 370.324 1079.49 370.445 1079.6 370.556 1079.62 370.57 1079.63 370.582 1079.65 370.595 1081.6 373.033 1083.82 375.256 1086.24 377.224 1086.26 377.239 1086.27 377.254 1086.28 377.269 1086.39 377.376 1086.51 377.464 1086.63 377.538 1089.17 379.541 1091.92 381.268 1094.86 382.674 1094.98 382.743 1095.1 382.799 1095.22 382.84 1098.45 384.352 1101.91 385.477 1105.51 386.154 1105.56 386.164 1105.6 386.173 1105.65 386.179 1108.21 386.652 1110.85 386.902 1113.55 386.902 1115.16 386.902 1116.74 386.811 1118.3 386.64 1114.18 404.275 1098.32 417.448 1079.45 417.448 1057.45 417.448 1039.55 399.549 1039.55 377.548 1039.55 366.455 1044 356.149 1052.07 348.53 1052.78 347.857 1052.81 346.733 1052.14 346.02 1051.46 345.306 1050.34 345.274 1049.63 345.947 1045.37 349.967 1042.02 354.712 1039.67 360.049 1037.23 365.576 1036 371.463 1036 377.549 1036 401.508 1055.49 421 1079.45 421 1100.5 421 1118.09 405.959 1122.06 386.062 1140.16 382.452 1154.24 367.566 1156.64 349.064 1156.64 349.053 1156.64 349.043 1156.64 349.032 1156.88 347.204 1157 345.342 1157 343.451 1157 340.754 1156.75 338.113 1156.28 335.551ZM1145.92 320.149C1147.1 321.791 1148.17 323.526 1149.1 325.341L1117.63 356.811C1116.65 355.03 1115.56 353.325 1114.36 351.706L1145.92 320.149ZM1143.7 317.344 1112.11 348.927C1110.81 347.442 1109.41 346.045 1107.92 344.75L1139.5 313.17C1141 314.457 1142.4 315.851 1143.7 317.344ZM1136.68 310.962 1105.13 342.519C1103.5 341.324 1101.79 340.237 1100 339.274L1131.47 307.809C1133.29 308.729 1135.03 309.784 1136.68 310.962ZM1121.53 304.354C1123.75 304.808 1125.92 305.449 1127.99 306.259L1096.62 337.635C1094.61 336.77 1092.53 336.051 1090.39 335.492L1121.53 304.354ZM1108.63 303.855C1110.24 303.656 1111.88 303.552 1113.55 303.552 1114.76 303.552 1115.96 303.609 1117.14 303.715L1086.23 334.628C1084.02 334.28 1081.76 334.098 1079.45 334.098 1079.09 334.098 1078.73 334.107 1078.37 334.116L1108.63 303.855ZM1102.29 305.172 1075.27 332.192C1079.09 319.229 1089.33 308.991 1102.29 305.172ZM1073.81 347.044C1073.71 345.86 1073.65 344.662 1073.65 343.451 1073.65 341.786 1073.75 340.145 1073.95 338.532L1074.53 337.958C1076.16 337.756 1077.8 337.65 1079.45 337.65 1080.66 337.65 1081.86 337.707 1083.04 337.813L1073.81 347.044ZM1074.45 351.429 1087.43 338.452C1089.66 338.906 1091.82 339.547 1093.89 340.357L1076.36 357.895C1075.55 355.818 1074.91 353.657 1074.45 351.429ZM1081.06 366.587C1079.88 364.936 1078.83 363.192 1077.91 361.369L1097.37 341.906C1099.19 342.827 1100.94 343.881 1102.59 345.06L1081.06 366.587ZM1083.27 369.402 1105.4 347.268C1106.9 348.555 1108.31 349.949 1109.6 351.442L1087.44 373.6C1085.95 372.306 1084.55 370.902 1083.27 369.402ZM1090.25 375.818 1111.82 354.247C1113 355.889 1114.07 357.623 1115 359.439L1095.44 378.998C1093.62 378.069 1091.89 377.004 1090.25 375.818ZM1105.33 382.498C1103.12 382.032 1100.96 381.382 1098.9 380.563L1116.56 362.897C1117.38 364.964 1118.03 367.115 1118.5 369.333L1105.33 382.498ZM1119.08 382.142 1118.14 383.084C1116.63 383.258 1115.1 383.35 1113.55 383.35 1112.25 383.35 1110.96 383.286 1109.69 383.163L1119.16 373.692C1119.29 374.961 1119.35 376.247 1119.35 377.549 1119.35 379.102 1119.26 380.634 1119.08 382.142ZM1121.45 366.385C1120.88 364.249 1120.15 362.177 1119.28 360.183L1150.66 328.799C1151.48 330.866 1152.13 333.018 1152.6 335.236L1121.45 366.385ZM1124.4 381.85 1151.95 354.301C1148.19 367.595 1137.69 378.089 1124.4 381.85ZM1153.18 348.044 1122.89 378.334C1122.9 378.072 1122.9 377.811 1122.9 377.549 1122.9 375.157 1122.7 372.811 1122.33 370.523L1153.26 339.594C1153.38 340.863 1153.45 342.15 1153.45 343.451 1153.45 345.004 1153.36 346.537 1153.18 348.044Z" fill="#FFFFFF"/></g></svg>